<svg id="svg" version="1.1" xmlns="http://www.w3.org/2000/svg" xmlns:xlink="http://www.w3.org/1999/xlink" width="400" height="213.53383458646618" viewBox="0, 0, 400,213.53383458646618"><g id="svgg"><path id="path0" d="M40.297 98.049 C 40.157 98.122,38.793 98.245,37.266 98.322 C 33.612 98.507,33.153 98.602,32.716 99.269 C 32.321 99.872,32.143 139.203,32.527 141.017 C 32.720 141.929,33.617 142.457,35.451 142.739 C 35.980 142.820,36.893 142.973,37.480 143.079 C 38.667 143.292,43.284 143.035,47.155 142.540 C 48.482 142.371,50.261 142.232,51.109 142.232 C 52.195 142.232,52.868 142.116,53.393 141.837 C 53.803 141.620,54.612 141.380,55.192 141.302 C 56.242 141.162,59.482 139.674,60.205 139.001 C 60.414 138.806,60.884 138.492,61.249 138.303 C 61.614 138.114,62.065 137.639,62.251 137.247 C 62.437 136.855,62.866 136.330,63.204 136.080 C 63.544 135.828,63.883 135.327,63.965 134.956 C 64.046 134.587,64.310 133.839,64.552 133.293 C 65.228 131.771,65.225 127.338,64.547 126.063 C 64.284 125.568,64.068 125.058,64.068 124.928 C 64.068 124.382,60.596 120.669,60.080 120.664 C 59.943 120.663,59.558 120.435,59.226 120.158 C 58.894 119.881,58.314 119.496,57.936 119.303 L 57.250 118.951 57.665 118.248 C 58.044 117.605,58.901 116.825,59.822 116.284 C 60.983 115.602,63.001 112.486,63.001 111.374 C 63.001 110.953,63.188 110.240,63.418 109.790 L 63.835 108.972 63.232 106.807 C 62.220 103.177,61.158 102.001,56.512 99.368 C 55.390 98.733,54.990 98.634,52.775 98.449 C 51.410 98.335,49.698 98.143,48.970 98.023 C 47.590 97.796,40.740 97.816,40.297 98.049 M104.752 98.021 C 104.399 98.120,102.901 98.266,101.423 98.346 C 99.944 98.426,98.638 98.554,98.522 98.631 C 97.199 99.506,97.054 140.590,98.368 141.904 C 98.531 142.067,99.170 142.250,99.786 142.311 C 100.403 142.371,101.965 142.526,103.257 142.655 C 105.681 142.897,112.848 142.664,116.492 142.224 C 117.429 142.111,118.594 142.018,119.082 142.018 C 119.588 142.018,120.077 141.888,120.221 141.715 C 120.360 141.547,120.876 141.343,121.368 141.261 C 122.573 141.059,128.352 138.197,128.532 137.713 C 128.573 137.602,128.968 137.284,129.409 137.005 C 130.319 136.431,132.620 133.667,133.298 132.335 C 133.547 131.846,134.024 131.113,134.360 130.704 C 134.696 130.296,134.971 129.741,134.971 129.472 C 134.971 129.203,135.214 128.384,135.512 127.652 C 135.810 126.920,136.148 125.662,136.262 124.855 C 136.377 124.049,136.518 123.313,136.574 123.221 C 137.003 122.527,137.076 118.854,136.698 116.989 C 136.477 115.896,136.229 114.498,136.147 113.881 C 136.065 113.265,135.923 112.760,135.831 112.760 C 135.739 112.760,135.545 112.448,135.400 112.066 C 134.545 109.810,134.005 108.556,133.760 108.262 C 133.606 108.078,133.367 107.597,133.228 107.194 C 132.906 106.262,131.362 104.459,129.845 103.243 C 129.199 102.725,128.526 102.168,128.350 102.005 C 127.754 101.453,124.225 99.725,123.027 99.398 C 122.372 99.220,121.689 98.994,121.509 98.897 C 120.300 98.243,106.523 97.523,104.752 98.021 M76.897 98.470 C 76.377 98.572,75.888 98.759,75.811 98.885 C 75.552 99.302,75.416 111.610,75.512 125.894 C 75.564 133.647,75.605 140.395,75.604 140.891 C 75.599 142.314,76.123 142.484,80.429 142.456 C 84.413 142.431,84.987 142.303,85.020 141.436 C 85.033 141.110,85.032 132.050,85.018 121.303 C 85.004 110.555,84.994 101.075,84.995 100.234 C 84.997 98.713,84.995 98.706,84.325 98.473 C 83.541 98.199,78.288 98.198,76.897 98.470 M146.945 98.470 C 146.425 98.572,145.928 98.730,145.841 98.821 C 145.486 99.188,145.194 138.706,145.529 140.882 C 145.778 142.493,145.446 142.459,160.241 142.394 C 175.038 142.329,173.412 142.748,173.412 139.001 C 173.412 134.660,173.910 134.910,165.146 134.844 C 158.142 134.790,156.184 134.609,155.649 133.965 C 155.285 133.526,155.109 125.758,155.444 124.891 C 155.946 123.593,156.162 123.555,163.834 123.438 C 168.066 123.374,170.912 123.247,171.039 123.118 C 171.415 122.738,171.435 117.097,171.062 116.738 C 170.803 116.489,169.541 116.412,164.442 116.334 L 158.142 116.238 156.827 115.654 C 155.239 114.950,155.265 115.023,155.264 111.159 C 155.263 105.562,154.399 106.069,164.183 105.930 C 173.330 105.800,172.361 106.284,172.290 101.878 L 172.237 98.577 171.703 98.429 C 170.925 98.213,148.063 98.251,146.945 98.470 M195.915 98.480 C 194.861 98.682,194.817 98.719,194.714 99.485 C 194.655 99.922,194.416 100.710,194.182 101.235 C 193.948 101.760,193.691 102.621,193.610 103.150 C 193.530 103.679,193.334 104.311,193.174 104.556 C 193.014 104.801,192.812 105.470,192.726 106.043 C 192.640 106.617,192.345 107.570,192.069 108.161 C 191.794 108.753,191.568 109.458,191.566 109.728 C 191.565 109.998,191.405 110.526,191.210 110.902 C 190.863 111.574,190.331 113.378,189.767 115.803 C 189.610 116.478,189.376 117.158,189.246 117.314 C 189.117 117.471,188.876 118.240,188.712 119.024 C 188.547 119.807,188.316 120.569,188.197 120.716 C 188.078 120.862,187.861 121.559,187.713 122.264 C 187.566 122.968,187.314 123.759,187.154 124.020 C 186.995 124.281,186.757 125.001,186.626 125.621 C 186.494 126.241,186.267 126.989,186.120 127.282 C 185.974 127.576,185.784 128.297,185.699 128.884 C 185.614 129.471,185.361 130.355,185.137 130.848 C 184.914 131.341,184.730 131.891,184.730 132.071 C 184.730 132.413,184.261 133.990,183.213 137.165 C 182.873 138.195,182.595 139.258,182.595 139.526 C 182.595 139.795,182.454 140.201,182.281 140.429 C 181.149 141.926,181.835 142.271,186.199 142.396 C 191.280 142.542,191.851 142.231,192.411 139.015 C 192.543 138.259,192.782 137.300,192.942 136.885 C 193.102 136.469,193.302 135.652,193.385 135.069 C 193.897 131.514,194.923 131.068,202.211 131.242 C 208.212 131.386,208.116 131.351,208.671 133.549 C 208.869 134.336,209.127 135.098,209.244 135.242 C 209.361 135.386,209.574 136.081,209.717 136.786 C 209.860 137.491,210.053 138.163,210.147 138.281 C 210.241 138.398,210.477 139.071,210.671 139.776 C 211.425 142.506,211.290 142.447,216.842 142.444 C 221.683 142.440,221.929 142.250,220.850 139.353 C 220.074 137.272,219.709 136.132,219.441 134.955 C 219.292 134.301,219.058 133.557,218.921 133.301 C 218.784 133.046,218.578 132.325,218.462 131.699 C 218.346 131.073,218.061 130.187,217.828 129.731 C 217.596 129.274,217.405 128.627,217.405 128.293 C 217.405 127.959,217.224 127.283,217.002 126.790 C 216.781 126.297,216.529 125.558,216.442 125.147 C 216.356 124.736,216.103 124.039,215.880 123.599 C 215.657 123.159,215.416 122.342,215.344 121.784 C 215.271 121.226,215.091 120.625,214.943 120.448 C 214.796 120.272,214.552 119.552,214.403 118.847 C 214.254 118.142,214.043 117.449,213.934 117.308 C 213.826 117.166,213.561 116.397,213.346 115.599 C 212.949 114.132,212.235 111.669,211.471 109.130 C 211.241 108.366,210.896 107.384,210.705 106.948 C 210.514 106.511,210.358 105.884,210.358 105.554 C 210.358 105.224,210.204 104.733,210.015 104.464 C 209.827 104.195,209.538 103.400,209.374 102.698 C 209.210 101.995,208.940 101.158,208.774 100.836 C 208.608 100.515,208.407 99.904,208.327 99.478 C 208.229 98.954,208.034 98.654,207.722 98.548 C 207.000 98.303,197.136 98.246,195.915 98.480 M345.399 98.436 C 344.321 98.503,343.375 98.624,343.295 98.704 C 342.574 99.430,342.553 141.449,343.274 142.171 C 343.475 142.372,367.808 142.527,369.390 142.338 C 370.133 142.249,370.537 142.090,370.629 141.852 C 370.800 141.407,370.808 136.245,370.638 135.803 C 370.467 135.357,365.671 134.939,359.777 134.855 C 355.211 134.790,353.550 134.660,353.006 134.324 C 352.504 134.013,352.554 124.811,353.062 124.035 L 353.428 123.477 360.771 123.404 C 366.599 123.347,368.187 123.271,368.467 123.038 C 368.923 122.660,368.999 117.013,368.553 116.657 C 368.398 116.533,365.780 116.395,362.306 116.328 C 355.949 116.206,353.809 115.920,352.910 115.073 C 352.378 114.572,352.250 107.295,352.757 106.407 L 353.032 105.926 359.828 105.926 C 370.082 105.926,369.890 106.000,369.885 102.050 C 369.881 98.955,369.830 98.779,368.831 98.480 C 367.985 98.227,349.302 98.191,345.399 98.436 M50.685 105.477 C 52.745 106.484,53.604 107.874,53.604 110.200 C 53.604 111.620,53.207 112.974,52.790 112.974 C 52.701 112.974,52.465 113.250,52.266 113.587 C 52.067 113.924,51.590 114.324,51.206 114.476 C 50.821 114.628,50.363 114.874,50.187 115.021 C 49.770 115.371,47.498 115.890,45.556 116.080 C 42.575 116.371,42.119 115.661,42.057 110.625 C 41.994 105.556,41.984 105.655,42.659 105.222 C 43.623 104.603,49.267 104.783,50.685 105.477 M116.199 105.593 C 116.716 105.773,117.266 105.922,117.423 105.923 C 119.810 105.949,123.395 108.841,124.974 112.013 C 126.473 115.024,126.461 124.821,124.956 127.651 C 124.845 127.859,124.462 128.663,124.106 129.437 C 123.459 130.843,122.155 132.253,121.143 132.641 C 120.878 132.742,120.662 132.915,120.662 133.027 C 120.662 133.138,120.302 133.348,119.861 133.493 C 119.421 133.638,118.820 133.934,118.526 134.150 C 118.233 134.366,117.320 134.637,116.498 134.753 C 115.675 134.868,114.570 135.056,114.042 135.171 C 111.985 135.617,108.581 135.456,107.914 134.882 L 107.314 134.366 107.321 120.730 C 107.329 105.991,107.326 106.030,108.465 105.375 C 109.210 104.947,114.797 105.105,116.199 105.593 M202.182 108.043 C 202.325 108.230,202.445 108.642,202.449 108.959 C 202.457 109.597,202.903 111.336,203.398 112.653 C 203.574 113.123,203.723 113.684,203.728 113.899 C 203.733 114.114,203.963 114.979,204.239 115.821 C 206.782 123.588,206.564 124.294,201.623 124.291 C 196.834 124.289,196.476 123.861,197.335 119.167 C 197.475 118.404,197.712 117.539,197.862 117.245 C 198.012 116.951,198.201 116.183,198.282 115.537 C 198.363 114.891,198.607 113.881,198.824 113.294 C 199.041 112.707,199.412 111.385,199.649 110.356 C 200.326 107.419,201.135 106.680,202.182 108.043 M49.226 123.179 C 54.919 124.128,57.064 129.513,53.315 133.443 C 50.958 135.912,44.989 137.019,42.724 135.406 L 42.072 134.942 42.029 131.913 C 41.923 124.293,42.045 123.134,42.979 122.942 C 43.731 122.788,47.806 122.942,49.226 123.179 " stroke="none" fill="#41b1d6" fill-rule="evenodd"></path><path id="path1" d="M262.146 12.494 C 262.029 12.535,260.945 12.876,259.737 13.252 C 256.780 14.174,253.731 16.492,253.086 18.310 C 252.929 18.752,252.437 19.741,251.992 20.508 C 250.112 23.752,249.084 29.728,249.973 32.248 C 250.149 32.747,250.294 33.537,250.294 34.004 C 250.294 40.379,259.512 46.841,266.051 45.051 C 270.716 43.773,274.508 41.541,276.191 39.082 C 276.553 38.553,277.205 37.688,277.640 37.160 C 279.208 35.257,279.456 34.497,280.005 29.920 C 280.369 26.892,279.445 23.521,277.366 20.288 C 276.649 19.172,275.862 17.944,275.617 17.559 C 273.746 14.605,265.264 11.417,262.146 12.494 M313.064 22.505 C 312.997 22.576,312.433 22.731,311.812 22.849 C 311.191 22.966,309.930 23.403,309.010 23.818 C 308.090 24.233,306.918 24.699,306.406 24.853 C 302.937 25.897,297.882 30.923,296.771 34.431 C 295.290 39.112,295.375 43.856,297.013 47.944 C 298.637 51.998,303.577 57.606,306.808 59.063 C 307.498 59.375,309.215 60.172,310.625 60.834 L 313.187 62.040 317.138 62.040 C 320.526 62.040,321.189 61.985,321.786 61.659 C 322.170 61.449,323.323 60.984,324.349 60.625 C 326.533 59.861,327.803 59.100,329.235 57.699 C 329.805 57.141,330.562 56.447,330.917 56.158 C 335.681 52.272,336.857 38.478,332.900 32.893 C 330.198 29.079,325.472 25.307,322.157 24.320 C 321.335 24.075,320.566 23.797,320.448 23.702 C 319.761 23.146,313.431 22.120,313.064 22.505 M221.664 48.983 C 218.897 49.729,214.433 53.815,213.224 56.707 C 212.868 57.560,212.820 60.593,213.135 62.413 C 213.252 63.089,213.438 64.168,213.549 64.812 C 214.144 68.263,217.313 72.340,221.200 74.654 C 224.652 76.710,224.711 76.726,228.510 76.614 C 233.041 76.482,235.220 75.603,236.988 73.195 C 237.414 72.613,238.179 71.717,238.686 71.202 C 240.959 68.896,241.435 62.662,239.644 58.632 C 238.791 56.712,236.028 53.549,233.743 51.875 C 233.038 51.359,232.413 50.885,232.355 50.821 C 230.932 49.280,224.600 48.191,221.664 48.983 M277.523 63.764 C 277.288 63.814,276.038 63.951,274.746 64.069 C 267.606 64.716,265.664 65.165,259.797 67.523 C 255.715 69.164,254.663 69.673,253.070 70.781 C 252.189 71.393,250.940 72.141,250.294 72.442 C 249.648 72.743,248.745 73.289,248.289 73.654 C 247.832 74.020,247.389 74.319,247.304 74.319 C 247.047 74.319,245.590 75.528,243.752 77.268 C 242.796 78.171,241.464 79.391,240.791 79.979 C 239.560 81.053,236.785 84.313,235.246 86.492 C 234.790 87.138,234.201 87.907,233.938 88.201 C 233.675 88.494,233.052 89.503,232.553 90.443 C 232.054 91.383,231.241 92.824,230.747 93.647 C 229.505 95.715,228.724 97.222,228.724 97.553 C 228.724 97.707,228.580 98.111,228.404 98.451 C 228.228 98.792,227.947 99.580,227.781 100.203 C 227.615 100.825,227.040 102.867,226.503 104.740 C 225.504 108.224,225.109 110.947,224.781 116.604 C 224.661 118.677,224.967 124.189,225.510 129.738 C 225.801 132.711,227.104 136.995,228.842 140.688 C 229.364 141.798,229.792 142.758,229.792 142.820 C 229.792 142.881,230.065 143.376,230.399 143.919 C 230.733 144.462,231.130 145.289,231.281 145.758 C 231.874 147.599,233.641 150.362,235.874 152.940 C 237.348 154.641,238.247 155.765,238.755 156.540 C 239.024 156.951,240.110 158.009,241.168 158.889 C 242.226 159.770,243.807 161.161,244.683 161.981 C 247.515 164.632,256.962 170.422,258.456 170.422 C 258.673 170.422,259.929 170.845,261.246 171.362 C 270.529 175.005,282.760 175.771,292.792 173.337 C 296.773 172.371,299.150 171.599,300.379 170.874 C 300.746 170.658,301.580 170.281,302.233 170.037 C 305.120 168.956,308.984 166.855,310.068 165.776 C 310.231 165.613,311.096 165.126,311.990 164.694 C 313.327 164.047,314.090 163.444,316.300 161.284 C 317.776 159.841,319.338 158.420,319.770 158.126 C 320.202 157.833,320.555 157.498,320.555 157.382 C 320.555 157.266,320.922 156.765,321.371 156.269 C 321.819 155.772,322.849 154.501,323.658 153.444 C 324.467 152.387,325.542 151.055,326.046 150.484 C 326.550 149.913,326.962 149.370,326.962 149.277 C 326.962 149.183,327.278 148.545,327.664 147.858 C 328.050 147.172,328.544 146.129,328.762 145.542 C 328.979 144.955,329.242 144.367,329.344 144.235 C 330.868 142.282,332.529 138.151,333.583 133.689 C 333.791 132.808,334.126 131.708,334.327 131.244 C 334.582 130.653,334.746 129.406,334.872 127.080 C 334.971 125.253,335.160 123.071,335.292 122.231 C 335.646 119.968,335.322 113.634,334.665 109.984 C 334.549 109.338,334.344 108.137,334.211 107.314 C 333.772 104.605,332.499 100.305,331.429 97.918 C 329.523 93.667,328.320 91.478,326.854 89.589 C 326.216 88.767,325.072 87.181,324.312 86.065 C 323.552 84.949,322.396 83.430,321.743 82.688 C 321.090 81.946,320.555 81.253,320.555 81.146 C 320.555 81.040,320.046 80.577,319.424 80.117 C 318.802 79.658,317.865 78.820,317.342 78.256 C 315.968 76.774,314.874 75.790,314.045 75.291 C 313.646 75.050,312.883 74.565,312.350 74.212 C 306.427 70.302,305.120 69.549,303.109 68.890 C 302.499 68.690,301.778 68.360,301.507 68.156 C 300.863 67.670,298.646 66.785,296.636 66.210 C 295.755 65.958,294.395 65.513,293.613 65.220 C 292.831 64.927,291.341 64.589,290.303 64.470 C 289.264 64.351,287.645 64.160,286.706 64.047 C 284.842 63.822,278.210 63.618,277.523 63.764 M342.445 64.912 C 341.741 65.123,340.635 65.537,339.989 65.832 C 339.343 66.126,338.580 66.439,338.294 66.526 C 336.822 66.976,333.123 71.461,331.864 74.322 L 331.161 75.921 331.144 80.085 C 331.123 85.106,331.136 85.141,334.410 88.732 C 336.750 91.298,339.102 92.450,343.309 93.088 C 346.854 93.626,353.267 91.406,354.849 89.094 C 355.145 88.661,355.742 87.819,356.177 87.221 C 359.196 83.073,359.413 82.448,359.420 77.907 C 359.425 73.817,359.262 73.295,356.801 69.514 C 356.572 69.162,355.767 68.393,355.013 67.806 C 354.258 67.218,353.333 66.485,352.955 66.176 C 351.152 64.701,345.442 64.014,342.445 64.912 M240.790 97.570 C 244.503 97.815,245.382 98.799,245.382 102.712 C 245.382 103.143,245.658 104.596,245.996 105.939 C 246.927 109.642,247.471 112.111,247.617 113.294 C 248.359 119.298,249.644 122.591,250.473 120.613 C 250.852 119.708,251.659 116.348,252.102 113.828 C 252.563 111.208,253.408 107.448,253.903 105.820 C 254.117 105.115,254.459 103.625,254.663 102.509 C 255.092 100.165,255.579 99.001,256.500 98.118 L 257.155 97.491 261.942 97.491 L 266.729 97.491 267.377 98.138 C 267.946 98.707,268.091 99.123,268.569 101.555 C 268.868 103.078,269.409 105.478,269.772 106.887 C 270.135 108.297,270.466 109.786,270.509 110.198 C 270.552 110.609,270.691 111.954,270.818 113.187 C 270.945 114.421,271.173 115.862,271.323 116.391 C 271.474 116.919,271.715 117.784,271.858 118.313 C 272.001 118.841,272.204 119.418,272.308 119.594 C 272.412 119.770,272.650 120.251,272.836 120.662 L 273.174 121.410 273.494 120.662 C 273.669 120.251,274.139 118.473,274.538 116.711 C 274.937 114.949,275.362 113.075,275.483 112.547 C 275.603 112.018,275.758 111.153,275.825 110.625 C 275.893 110.096,276.127 108.943,276.346 108.062 C 276.564 107.181,276.900 105.451,277.091 104.218 C 278.092 97.786,278.574 97.169,282.588 97.172 C 287.261 97.176,289.060 97.673,289.462 99.074 C 289.686 99.856,288.938 104.787,288.374 106.247 C 287.662 108.090,286.323 112.756,285.954 114.682 C 285.561 116.733,284.478 121.021,283.067 126.108 C 282.644 127.635,282.164 129.509,282.001 130.272 C 281.837 131.036,281.418 132.525,281.068 133.582 C 280.719 134.640,280.291 135.937,280.118 136.466 C 279.946 136.994,279.591 138.340,279.330 139.455 C 278.561 142.748,278.263 142.911,273.065 142.875 C 266.698 142.832,265.944 142.289,265.362 137.320 C 265.286 136.674,265.041 135.424,264.817 134.544 C 264.594 133.663,264.261 132.125,264.078 131.127 C 263.896 130.128,263.652 128.975,263.537 128.564 C 263.422 128.153,263.089 126.567,262.796 125.040 C 262.503 123.513,262.069 121.883,261.831 121.418 C 261.593 120.952,261.399 120.448,261.399 120.297 C 261.399 119.834,261.100 120.004,260.649 120.724 C 260.048 121.684,259.131 124.632,258.609 127.282 C 258.366 128.516,257.982 130.390,257.756 131.447 C 257.530 132.504,257.205 134.042,257.034 134.864 C 256.864 135.686,256.572 136.785,256.387 137.306 C 256.202 137.827,255.907 138.871,255.732 139.626 C 255.067 142.494,254.637 142.685,248.738 142.729 C 243.186 142.770,242.498 142.487,242.067 139.989 C 241.843 138.692,241.163 136.109,240.932 135.676 C 240.818 135.464,240.616 134.666,240.481 133.903 C 239.950 130.885,239.461 128.796,238.284 124.506 C 237.894 123.087,236.988 118.968,236.099 114.576 C 235.933 113.753,235.647 112.723,235.464 112.287 C 235.281 111.850,235.131 111.277,235.131 111.014 C 235.131 110.751,234.896 109.666,234.610 108.604 C 231.925 98.658,232.217 97.023,236.626 97.300 C 237.624 97.363,239.498 97.484,240.790 97.570 M322.438 97.494 C 323.951 97.761,324.392 99.513,323.994 103.673 C 323.700 106.738,323.946 106.645,314.896 107.083 C 307.371 107.447,307.356 107.454,307.151 111.055 C 306.967 114.284,306.454 114.112,316.954 114.345 C 322.857 114.476,323.542 115.074,323.282 119.874 C 323.065 123.903,322.540 124.271,316.604 124.555 C 312.028 124.775,311.618 124.777,309.618 124.599 C 307.352 124.396,307.101 124.757,307.101 128.224 C 307.101 132.702,307.438 132.915,314.576 132.961 C 324.347 133.024,325.147 133.418,325.146 138.166 C 325.145 142.957,326.205 142.633,310.459 142.652 C 296.803 142.668,296.565 142.649,296.025 141.463 C 295.567 140.458,295.693 99.593,296.156 98.668 C 296.709 97.566,297.252 97.393,300.130 97.401 C 301.523 97.405,302.710 97.361,302.768 97.303 C 302.936 97.135,321.419 97.314,322.438 97.494 M343.620 156.960 C 343.620 157.073,343.908 157.494,344.261 157.896 C 344.613 158.297,344.901 158.721,344.901 158.838 C 344.901 159.250,345.536 159.578,346.073 159.443 C 347.019 159.206,346.800 158.767,344.883 157.056 C 344.500 156.714,343.620 156.647,343.620 156.960 M341.057 165.928 C 341.057 166.164,342.146 167.218,342.390 167.218 C 342.682 167.218,342.560 166.402,342.216 166.059 C 341.849 165.691,341.057 165.602,341.057 165.928 M333.856 175.494 C 332.620 176.608,332.892 177.469,334.479 177.469 C 335.220 177.469,335.623 177.588,335.932 177.896 L 336.359 178.324 336.359 177.716 C 336.359 177.380,336.168 176.936,335.932 176.722 C 335.697 176.509,335.505 176.217,335.505 176.073 C 335.505 175.848,334.631 175.120,334.361 175.120 C 334.311 175.120,334.084 175.288,333.856 175.494 M310.698 187.981 C 309.721 188.306,309.724 189.794,310.704 190.457 C 311.626 191.082,312.440 191.382,312.440 191.096 C 312.440 190.961,312.583 190.692,312.758 190.499 C 313.839 189.305,312.315 187.442,310.698 187.981 M287.038 191.984 C 286.803 192.130,286.741 192.628,286.774 194.133 C 286.825 196.563,287.035 197.064,287.569 196.032 C 287.777 195.630,288.136 195.046,288.367 194.733 C 289.101 193.740,287.973 191.406,287.038 191.984 M270.691 194.201 C 270.231 195.057,270.723 196.095,271.541 195.995 C 272.159 195.918,272.178 195.324,271.593 194.343 L 271.079 193.481 270.691 194.201 M313.194 193.903 C 313.131 194.005,313.157 194.297,313.252 194.552 C 313.423 195.015,313.424 195.014,313.666 194.483 C 313.908 193.952,313.485 193.433,313.194 193.903 M293.647 196.156 C 293.353 196.327,292.710 196.567,292.217 196.690 L 291.322 196.913 292.091 198.205 C 293.997 201.405,296.251 201.293,295.596 198.031 C 295.238 196.248,294.580 195.615,293.647 196.156 " stroke="none" fill="#efd415" fill-rule="evenodd"></path><path id="path2" d="M0.000 106.781 L 0.000 213.561 200.000 213.561 L 400.000 213.561 400.000 106.781 L 400.000 0.000 200.000 0.000 L 0.000 0.000 0.000 106.781 M266.738 10.557 C 267.384 10.717,268.297 11.013,268.767 11.215 C 269.237 11.418,270.126 11.715,270.743 11.876 C 273.673 12.639,276.664 14.666,277.784 16.647 C 278.257 17.484,278.675 18.187,280.141 20.609 C 281.838 23.412,282.289 28.571,281.295 33.816 C 280.815 36.352,280.639 36.709,279.015 38.441 C 278.409 39.087,277.473 40.240,276.935 41.004 C 275.375 43.215,274.245 44.024,270.475 45.633 C 262.873 48.876,254.283 46.621,250.813 40.470 C 250.482 39.883,250.001 39.114,249.745 38.761 C 247.769 36.042,247.118 24.129,248.832 22.063 C 249.149 21.682,249.944 20.199,250.930 18.153 C 251.411 17.154,251.919 16.110,252.059 15.833 C 252.705 14.552,256.981 11.756,258.318 11.741 C 258.544 11.739,259.162 11.536,259.690 11.292 C 261.909 10.266,264.479 9.998,266.738 10.557 M316.901 21.143 C 321.336 21.543,325.700 22.930,327.264 24.437 C 329.158 26.262,331.272 28.151,332.181 28.831 C 334.391 30.482,336.620 35.433,337.038 39.616 C 337.486 44.107,336.935 50.805,336.004 52.176 C 335.671 52.667,335.061 53.672,334.650 54.408 C 333.802 55.927,329.366 60.541,328.209 61.108 C 321.683 64.306,321.255 64.413,316.383 64.063 C 312.092 63.754,311.542 63.612,308.169 61.937 C 306.466 61.091,304.832 60.289,304.538 60.154 C 304.245 60.020,303.428 59.300,302.723 58.556 C 302.018 57.812,300.577 56.321,299.519 55.242 C 296.180 51.833,294.544 49.247,294.086 46.651 C 293.962 45.953,293.755 44.853,293.625 44.207 C 293.304 42.611,293.491 38.343,293.925 37.358 C 294.110 36.938,294.374 35.737,294.512 34.688 C 294.817 32.374,296.357 29.965,299.016 27.644 C 299.293 27.402,299.858 26.814,300.271 26.337 C 300.685 25.860,301.501 25.185,302.086 24.837 C 305.519 22.794,306.262 22.429,307.635 22.113 C 308.457 21.924,309.514 21.660,309.984 21.527 C 310.687 21.327,312.138 21.142,314.362 20.968 C 314.538 20.955,315.681 21.033,316.901 21.143 M229.408 47.474 C 234.820 49.021,239.928 53.661,241.529 58.486 C 241.894 59.586,242.345 60.781,242.532 61.142 C 243.127 62.294,243.176 65.133,242.620 66.281 C 242.361 66.816,241.873 68.275,241.535 69.524 C 240.900 71.871,240.678 72.345,239.787 73.251 C 239.498 73.545,238.852 74.314,238.350 74.960 C 237.253 76.371,236.397 76.928,234.277 77.609 C 228.129 79.585,223.999 79.129,219.326 75.959 C 217.543 74.749,216.381 73.612,214.768 71.498 C 214.442 71.070,213.858 70.384,213.470 69.973 C 211.456 67.837,211.015 66.070,210.995 60.055 C 210.979 55.413,211.190 54.828,214.140 51.326 C 216.641 48.358,217.177 48.039,221.570 46.903 C 222.740 46.601,227.587 46.954,229.408 47.474 M284.250 61.838 C 286.210 61.925,287.908 62.110,288.414 62.291 C 288.884 62.459,290.296 62.681,291.551 62.783 C 292.807 62.885,294.152 63.113,294.541 63.290 C 295.300 63.635,297.238 64.383,299.306 65.129 C 300.011 65.384,301.260 65.760,302.082 65.965 C 302.904 66.170,303.962 66.581,304.431 66.878 C 304.901 67.175,305.929 67.723,306.715 68.097 C 307.501 68.471,308.552 69.168,309.049 69.646 C 310.069 70.626,311.986 71.970,312.363 71.970 C 312.607 71.970,314.846 73.177,315.613 73.723 C 316.472 74.334,318.772 76.410,319.689 77.402 C 321.414 79.269,322.259 80.085,322.466 80.085 C 322.996 80.085,324.213 81.668,325.422 83.930 C 325.964 84.943,327.693 87.383,328.735 88.606 C 329.075 89.005,329.541 89.774,329.770 90.314 C 330.261 91.472,331.315 93.577,332.297 95.363 C 334.249 98.912,334.390 99.234,334.500 100.374 C 334.635 101.766,335.174 103.436,335.738 104.202 C 336.221 104.858,336.660 107.038,336.485 107.913 C 336.416 108.255,336.519 109.702,336.713 111.128 C 337.415 116.298,337.000 128.933,336.013 132.418 C 335.832 133.058,335.592 134.063,335.481 134.650 C 335.369 135.238,334.947 136.439,334.543 137.320 C 334.139 138.201,333.671 139.582,333.503 140.390 C 333.334 141.197,332.995 142.130,332.749 142.463 C 332.503 142.796,332.301 143.130,332.301 143.205 C 332.301 143.279,332.106 143.614,331.868 143.949 C 331.630 144.283,331.107 145.371,330.705 146.367 C 330.074 147.933,329.091 149.947,328.343 151.206 C 328.222 151.410,327.670 152.037,327.115 152.599 C 326.561 153.161,326.108 153.737,326.108 153.880 C 326.108 154.022,325.975 154.249,325.812 154.384 C 325.650 154.519,325.154 155.251,324.709 156.010 C 324.217 156.853,323.353 157.872,322.495 158.621 C 321.722 159.297,319.934 161.004,318.523 162.413 C 317.111 163.823,315.622 165.136,315.213 165.331 C 314.804 165.527,313.899 165.938,313.202 166.245 C 312.505 166.552,311.447 167.258,310.852 167.813 C 309.778 168.815,308.696 169.379,306.477 170.093 C 305.840 170.298,304.844 170.792,304.264 171.191 C 303.684 171.590,303.100 171.917,302.966 171.918 C 302.832 171.918,301.714 172.336,300.481 172.845 C 297.895 173.914,292.705 175.468,290.792 175.747 C 290.072 175.852,289.098 176.103,288.628 176.305 C 286.663 177.148,273.153 176.707,268.233 175.640 C 263.356 174.582,253.964 171.096,251.917 169.583 C 251.269 169.105,250.702 168.713,250.657 168.713 C 250.469 168.713,246.956 166.527,246.560 166.164 C 246.323 165.946,245.696 165.494,245.167 165.158 C 243.468 164.083,241.449 162.338,240.805 161.388 C 240.459 160.879,239.741 160.221,239.201 159.920 C 238.663 159.620,238.084 159.097,237.914 158.758 C 237.185 157.308,235.306 154.679,234.601 154.124 C 234.181 153.793,233.603 153.168,233.317 152.736 C 233.031 152.303,232.505 151.536,232.148 151.032 C 231.018 149.437,228.579 144.967,227.871 143.193 C 227.496 142.253,227.093 141.303,226.975 141.081 C 226.858 140.859,226.619 140.199,226.446 139.615 C 226.272 139.030,225.805 137.866,225.408 137.028 C 224.451 135.008,224.131 133.685,223.823 130.486 C 223.683 129.018,223.389 126.423,223.171 124.720 C 222.268 117.661,224.155 100.797,226.095 98.601 C 226.854 97.742,227.229 96.979,227.229 96.296 C 227.229 95.566,228.118 93.856,229.384 92.152 C 229.821 91.564,230.330 90.715,230.516 90.264 C 230.701 89.813,231.126 89.093,231.460 88.662 C 231.793 88.232,232.540 87.112,233.118 86.173 C 233.696 85.234,234.453 84.142,234.800 83.747 C 235.146 83.352,235.821 82.467,236.298 81.781 C 236.803 81.055,237.695 80.163,238.430 79.648 C 239.125 79.161,239.891 78.508,240.132 78.196 C 241.889 75.929,245.450 73.052,248.509 71.427 C 250.356 70.446,251.465 69.683,252.738 68.516 C 253.084 68.199,253.757 67.776,254.233 67.577 C 254.709 67.378,255.627 66.951,256.273 66.629 C 257.797 65.869,262.687 64.150,264.184 63.848 C 264.825 63.718,265.690 63.484,266.106 63.326 C 266.521 63.169,267.819 62.932,268.989 62.801 C 270.159 62.669,271.692 62.418,272.397 62.242 C 273.610 61.941,279.597 61.486,280.513 61.626 C 280.747 61.662,282.429 61.757,284.250 61.838 M348.794 62.668 C 353.030 63.536,356.942 65.805,358.128 68.081 C 358.355 68.517,358.940 69.351,359.429 69.935 C 361.064 71.888,361.175 72.268,361.377 76.562 C 361.669 82.764,361.344 84.028,358.718 86.919 C 358.025 87.683,357.262 88.692,357.023 89.162 C 356.579 90.036,354.234 92.472,353.837 92.472 C 353.716 92.472,353.361 92.652,353.050 92.872 C 349.690 95.245,341.255 95.542,337.235 93.430 C 334.838 92.170,329.859 86.991,329.642 85.531 C 329.554 84.944,329.402 84.314,329.304 84.130 C 329.206 83.947,329.101 82.073,329.069 79.966 L 329.013 76.135 330.055 73.893 C 332.680 68.244,335.732 65.075,339.669 63.913 C 340.256 63.740,340.844 63.510,340.976 63.403 C 342.426 62.222,345.297 61.952,348.794 62.668 M52.002 97.272 C 55.214 97.628,56.170 97.866,56.691 98.441 C 56.897 98.668,57.367 98.921,57.735 99.002 C 58.103 99.083,58.703 99.376,59.068 99.654 C 59.432 99.933,59.795 100.160,59.874 100.160 C 60.158 100.160,61.500 101.127,61.505 101.335 C 61.507 101.452,61.821 101.885,62.202 102.296 C 64.190 104.440,65.131 108.700,64.184 111.265 C 63.988 111.794,63.703 112.729,63.550 113.344 C 63.234 114.614,62.965 115.006,62.108 115.449 C 61.777 115.621,61.506 115.883,61.506 116.032 C 61.506 116.181,61.025 116.669,60.438 117.117 C 59.062 118.166,59.344 120.021,60.879 120.021 C 62.149 120.021,65.563 124.724,65.563 126.472 C 65.563 126.889,65.707 127.575,65.884 127.997 C 66.284 128.954,66.284 130.213,65.884 130.913 C 65.714 131.210,65.575 132.026,65.571 132.750 C 65.565 133.719,65.427 134.310,65.029 135.057 C 64.736 135.609,64.495 136.231,64.495 136.440 C 64.495 136.648,64.255 137.044,63.962 137.320 C 63.668 137.596,63.427 137.925,63.427 138.051 C 63.427 138.310,61.518 139.669,61.154 139.669 C 61.024 139.669,60.802 139.808,60.660 139.978 C 60.519 140.149,60.051 140.401,59.620 140.539 C 59.189 140.677,58.638 140.969,58.397 141.189 C 58.155 141.408,57.509 141.649,56.961 141.724 C 56.256 141.821,55.872 142.003,55.646 142.348 C 55.352 142.796,55.134 142.843,52.917 142.934 C 51.592 142.989,49.786 143.194,48.905 143.391 C 47.595 143.683,46.052 143.750,40.419 143.758 L 33.533 143.768 32.837 143.187 C 32.454 142.867,32.051 142.451,31.942 142.261 C 31.172 140.930,31.158 100.556,31.926 98.625 C 32.188 97.967,34.684 97.311,37.480 97.166 C 42.412 96.909,49.169 96.959,52.002 97.272 M84.756 97.476 C 86.217 98.232,86.137 97.283,86.212 114.682 C 86.249 123.315,86.286 130.956,86.293 131.660 C 86.363 138.132,86.089 142.267,85.541 142.985 L 84.994 143.703 80.410 143.661 C 75.951 143.621,75.812 143.607,75.339 143.134 L 74.853 142.647 74.785 122.205 C 74.707 98.630,74.714 98.443,75.673 97.759 C 76.760 96.983,83.403 96.777,84.756 97.476 M118.875 97.404 C 119.212 97.538,120.192 97.720,121.054 97.809 C 122.075 97.915,122.820 98.118,123.191 98.393 C 123.505 98.625,124.209 98.882,124.756 98.964 C 125.302 99.046,125.800 99.243,125.860 99.401 C 125.921 99.560,126.338 99.811,126.787 99.959 C 127.236 100.106,128.103 100.597,128.715 101.048 C 129.326 101.499,129.886 101.869,129.957 101.869 C 130.186 101.869,132.621 104.307,132.621 104.536 C 132.621 104.657,132.812 104.875,133.046 105.021 C 133.279 105.166,133.614 105.598,133.789 105.980 C 133.964 106.361,134.227 106.866,134.373 107.101 C 135.363 108.697,135.575 109.121,135.714 109.779 C 135.800 110.185,136.053 110.818,136.275 111.184 C 136.497 111.550,136.680 112.175,136.680 112.572 C 136.681 112.969,136.830 113.579,137.011 113.926 C 137.916 115.662,138.005 123.436,137.144 125.528 C 136.888 126.149,136.678 126.918,136.677 127.237 C 136.676 127.556,136.439 128.297,136.150 128.884 C 135.861 129.471,135.622 130.212,135.618 130.531 C 135.614 130.849,135.431 131.282,135.210 131.492 C 134.990 131.702,134.611 132.267,134.369 132.747 C 134.127 133.227,133.457 134.188,132.878 134.883 C 132.300 135.577,131.668 136.456,131.473 136.836 C 131.256 137.260,130.893 137.584,130.536 137.673 C 130.215 137.754,129.670 138.103,129.323 138.450 C 128.977 138.796,128.256 139.267,127.721 139.496 C 127.186 139.726,126.604 140.037,126.428 140.189 C 126.252 140.341,125.826 140.533,125.482 140.615 C 125.137 140.697,124.577 140.999,124.237 141.285 C 123.897 141.571,123.478 141.805,123.305 141.805 C 123.132 141.805,122.711 141.949,122.369 142.126 C 122.028 142.302,120.810 142.544,119.662 142.663 C 118.514 142.782,116.995 143.075,116.285 143.315 C 114.634 143.873,99.228 143.876,98.238 143.319 C 97.487 142.896,96.959 142.244,96.944 141.719 C 96.456 124.580,96.691 99.537,97.349 98.501 C 97.706 97.938,99.842 97.335,102.082 97.163 C 105.292 96.917,118.110 97.101,118.875 97.404 M172.682 97.522 C 173.621 98.137,173.797 98.654,173.641 100.347 C 173.562 101.208,173.571 102.596,173.660 103.433 C 173.982 106.443,173.766 106.567,168.196 106.567 C 165.934 106.567,162.614 106.631,160.818 106.708 L 157.554 106.850 156.727 107.636 L 155.900 108.423 155.900 110.620 C 155.900 114.797,156.094 114.906,163.770 115.031 C 171.069 115.150,171.286 115.175,172.151 115.983 L 172.832 116.620 172.720 119.782 C 172.546 124.706,172.903 124.468,165.499 124.603 C 162.392 124.660,159.161 124.768,158.318 124.844 L 156.786 124.980 156.321 126.061 C 155.796 127.283,155.842 129.126,156.467 131.791 C 156.986 134.008,156.796 133.962,165.723 134.049 C 172.042 134.111,173.190 134.171,173.785 134.473 L 174.479 134.824 174.479 138.602 C 174.479 142.699,174.500 142.623,173.198 143.315 C 172.535 143.667,154.453 143.860,149.219 143.571 L 145.848 143.385 145.058 142.594 L 144.267 141.804 144.157 135.451 C 144.019 127.494,144.259 110.889,144.572 106.781 C 144.701 105.077,144.864 102.459,144.933 100.963 L 145.058 98.242 145.793 97.788 C 146.938 97.080,147.980 97.033,160.471 97.121 C 170.406 97.191,172.270 97.252,172.682 97.522 M207.598 97.391 C 208.109 97.527,208.454 97.789,208.640 98.183 C 208.794 98.507,209.099 99.122,209.319 99.550 C 209.539 99.978,209.780 100.771,209.854 101.312 C 209.928 101.853,210.061 102.296,210.149 102.296 C 210.426 102.296,210.998 103.720,210.998 104.410 C 210.998 104.774,211.084 105.072,211.189 105.072 C 211.466 105.072,212.066 106.682,212.066 107.426 C 212.066 107.776,212.150 108.062,212.252 108.062 C 212.455 108.062,212.831 109.384,213.010 110.731 C 213.072 111.201,213.318 111.966,213.556 112.432 C 213.794 112.897,213.988 113.620,213.988 114.039 C 213.988 114.458,214.124 114.995,214.291 115.233 C 214.457 115.471,214.664 116.045,214.750 116.509 C 214.836 116.972,215.132 117.955,215.408 118.691 C 215.684 119.428,215.910 120.198,215.910 120.402 C 215.910 120.605,216.151 121.224,216.444 121.775 C 216.738 122.327,216.978 122.944,216.978 123.148 C 216.978 123.351,217.177 123.928,217.420 124.429 C 217.663 124.931,217.919 125.898,217.989 126.578 C 218.059 127.259,218.293 128.104,218.508 128.457 C 218.723 128.809,218.899 129.302,218.899 129.551 C 218.900 129.800,219.140 130.740,219.434 131.640 C 219.728 132.539,219.968 133.541,219.968 133.867 C 219.968 134.192,220.052 134.549,220.155 134.661 C 220.874 135.439,221.890 139.173,221.890 141.038 C 221.890 143.710,222.117 143.602,216.334 143.691 L 211.739 143.762 211.040 143.094 C 210.564 142.638,210.285 142.124,210.164 141.477 C 210.066 140.955,209.875 140.393,209.738 140.229 C 209.602 140.064,209.351 139.261,209.180 138.443 C 209.010 137.625,208.725 136.677,208.548 136.337 C 208.370 135.997,208.224 135.413,208.223 135.040 C 208.221 133.901,206.425 132.210,205.567 132.539 C 205.187 132.684,201.157 132.254,200.460 131.993 C 200.207 131.899,199.784 131.903,199.519 132.003 C 199.255 132.102,198.822 132.101,198.556 132.000 C 196.672 131.284,194.191 134.223,193.856 137.567 C 193.802 138.115,193.556 139.076,193.311 139.703 C 193.066 140.330,192.809 141.202,192.740 141.640 C 192.648 142.225,192.408 142.594,191.838 143.028 L 191.063 143.620 186.621 143.620 C 181.075 143.620,181.191 143.682,181.235 140.741 C 181.259 139.154,181.338 138.743,181.716 138.264 C 181.996 137.907,182.168 137.381,182.168 136.875 C 182.168 136.417,182.401 135.622,182.702 135.057 C 182.995 134.505,183.235 133.801,183.235 133.494 C 183.235 133.187,183.415 132.600,183.635 132.190 C 183.855 131.780,184.106 131.013,184.194 130.485 C 184.282 129.957,184.483 129.273,184.640 128.964 C 184.798 128.656,185.032 127.745,185.161 126.939 C 185.290 126.133,185.518 125.328,185.669 125.150 C 185.819 124.972,186.059 124.281,186.202 123.615 C 186.345 122.949,186.601 122.288,186.771 122.147 C 186.941 122.006,187.079 121.591,187.077 121.223 C 187.076 120.856,187.308 119.834,187.593 118.954 C 188.555 115.979,189.004 114.366,189.140 113.401 C 189.214 112.872,189.429 112.152,189.619 111.799 C 189.808 111.447,190.011 110.726,190.069 110.198 C 190.151 109.464,190.290 109.187,190.657 109.026 C 191.027 108.863,191.137 108.639,191.137 108.043 C 191.137 107.619,191.362 106.849,191.636 106.332 C 191.911 105.815,192.187 105.005,192.250 104.531 C 192.314 104.058,192.570 103.222,192.819 102.674 C 193.069 102.127,193.271 101.409,193.268 101.080 C 193.258 99.918,194.356 98.069,195.302 97.654 C 196.719 97.031,205.534 96.843,207.598 97.391 M369.460 97.492 C 371.735 98.676,371.835 104.752,369.606 106.376 C 369.508 106.447,365.921 106.555,361.635 106.615 C 356.067 106.693,353.769 106.796,353.589 106.976 C 353.039 107.525,353.129 113.690,353.696 114.320 L 354.191 114.871 361.429 115.057 L 368.667 115.243 369.163 115.821 C 370.577 117.464,370.363 122.891,368.841 124.009 C 368.257 124.437,366.785 124.554,360.235 124.692 C 355.450 124.794,353.823 124.895,353.614 125.105 C 353.223 125.498,353.215 133.333,353.605 133.723 C 353.809 133.926,355.924 134.013,362.320 134.080 L 370.767 134.169 371.089 134.661 C 371.587 135.422,371.431 142.336,370.897 143.150 L 370.519 143.727 356.881 143.727 L 343.243 143.727 342.717 143.033 C 341.558 141.503,341.612 142.174,341.573 128.671 C 341.537 116.243,341.781 99.413,342.007 98.702 C 342.230 97.998,343.520 97.547,346.015 97.298 C 349.486 96.952,368.729 97.111,369.460 97.492 M282.288 99.082 C 280.398 99.448,279.127 101.642,278.817 105.072 C 278.748 105.836,278.502 107.229,278.270 108.169 C 278.038 109.108,277.847 110.290,277.846 110.795 C 277.844 111.300,277.695 111.999,277.515 112.348 C 277.334 112.697,277.049 114.062,276.881 115.381 C 276.581 117.732,276.216 119.493,275.588 121.623 C 275.415 122.210,275.130 123.395,274.956 124.255 C 274.653 125.752,273.623 127.710,273.139 127.710 C 273.029 127.710,272.733 127.303,272.479 126.807 C 272.226 126.310,271.793 125.563,271.517 125.146 C 270.949 124.288,270.507 122.510,270.162 119.701 C 269.654 115.567,269.132 112.625,268.798 112.013 C 268.606 111.660,268.448 110.913,268.448 110.351 C 268.447 109.758,268.232 108.819,267.933 108.109 C 267.651 107.437,267.261 105.878,267.065 104.645 C 266.279 99.688,266.261 99.655,264.287 99.286 C 260.666 98.609,257.323 99.598,256.997 101.442 C 256.924 101.853,256.644 102.766,256.375 103.470 C 256.105 104.175,255.634 106.001,255.327 107.528 C 255.019 109.055,254.635 110.794,254.473 111.393 C 254.311 111.992,254.115 113.145,254.038 113.956 C 253.961 114.767,253.761 116.067,253.594 116.846 C 253.427 117.625,253.147 119.282,252.972 120.529 C 252.797 121.776,252.405 123.494,252.101 124.346 C 251.797 125.197,251.323 126.534,251.049 127.317 C 250.234 129.638,250.064 129.729,249.151 128.326 C 248.367 127.122,246.583 121.033,246.342 118.740 C 246.261 117.977,246.061 116.439,245.897 115.323 C 245.732 114.207,245.597 112.847,245.597 112.300 C 245.595 111.395,244.791 107.727,243.977 104.916 C 243.800 104.302,243.604 103.293,243.543 102.674 C 243.366 100.874,243.300 100.711,242.584 100.288 C 241.690 99.760,238.745 99.104,237.266 99.103 C 235.052 99.101,234.744 99.880,235.626 103.257 C 236.088 105.025,236.558 107.247,236.845 109.023 C 236.978 109.845,237.265 110.955,237.484 111.489 C 237.703 112.023,238.033 113.368,238.218 114.479 C 238.893 118.528,239.168 119.735,239.812 121.468 C 240.173 122.439,240.705 124.602,240.993 126.273 C 241.282 127.944,241.677 130.032,241.871 130.913 C 242.065 131.794,242.356 133.139,242.517 133.903 C 243.623 139.150,244.649 140.849,246.907 141.168 C 248.626 141.412,251.425 141.131,251.887 140.669 C 252.069 140.487,252.393 140.282,252.606 140.215 C 253.161 140.038,253.783 139.114,254.338 137.640 C 254.604 136.935,254.951 136.022,255.111 135.611 C 255.270 135.200,255.405 134.301,255.410 133.613 C 255.415 132.924,255.607 131.579,255.837 130.623 C 256.905 126.174,257.189 124.951,257.434 123.759 C 257.578 123.054,257.811 122.262,257.952 121.999 C 258.093 121.737,258.343 120.824,258.509 119.971 C 259.065 117.114,260.650 112.974,261.187 112.974 C 261.956 112.974,262.615 114.214,262.889 116.177 C 263.045 117.293,263.261 118.446,263.369 118.740 C 263.477 119.034,263.746 120.091,263.967 121.089 C 264.188 122.088,264.507 123.433,264.677 124.079 C 264.846 124.725,265.194 126.455,265.449 127.923 C 265.705 129.391,266.110 131.410,266.350 132.408 C 266.591 133.406,266.905 134.848,267.050 135.611 C 267.935 140.293,268.076 140.423,272.501 140.623 C 277.179 140.835,277.637 140.470,278.383 135.932 C 278.461 135.462,278.896 134.096,279.351 132.896 C 279.865 131.540,280.264 130.028,280.404 128.897 C 280.528 127.897,280.803 126.668,281.013 126.166 C 281.459 125.106,282.281 122.191,283.079 118.847 C 283.387 117.555,283.776 115.969,283.944 115.323 C 284.112 114.677,284.404 113.284,284.592 112.226 C 284.780 111.169,285.254 109.343,285.646 108.169 C 286.037 106.994,286.425 105.456,286.507 104.752 C 286.589 104.047,286.836 102.905,287.055 102.215 C 287.537 100.695,287.551 100.288,287.133 99.870 C 286.605 99.342,283.528 98.841,282.288 99.082 M300.908 99.156 C 297.622 99.384,297.710 99.284,297.450 103.075 C 297.040 109.076,297.577 139.304,298.113 140.359 C 298.591 141.300,300.925 141.411,310.731 140.959 C 313.962 140.810,317.904 140.644,319.492 140.590 C 323.070 140.469,323.313 140.341,323.475 138.481 C 323.678 136.147,323.236 135.731,319.886 135.103 C 317.519 134.659,315.374 134.663,313.010 135.116 C 311.394 135.425,310.981 135.437,310.127 135.198 C 309.578 135.045,308.720 134.837,308.219 134.737 C 305.847 134.263,305.608 133.740,305.607 129.017 L 305.606 125.306 306.240 124.198 C 307.394 122.180,308.202 121.873,310.377 122.626 C 311.548 123.031,311.817 123.050,313.282 122.827 C 314.169 122.692,315.750 122.582,316.793 122.583 C 320.224 122.585,321.217 121.916,321.369 119.497 C 321.542 116.760,320.634 116.359,314.402 116.417 C 306.640 116.490,304.841 115.047,305.629 109.381 C 306.212 105.187,306.990 104.756,313.456 105.042 C 320.560 105.355,321.538 105.039,322.359 102.164 C 323.004 99.907,318.474 98.463,313.294 99.275 C 312.766 99.357,311.853 99.336,311.265 99.228 C 309.899 98.976,304.087 98.935,300.908 99.156 M44.079 105.976 C 42.965 106.473,42.519 108.334,42.942 110.719 C 43.708 115.040,43.655 114.970,46.058 114.837 C 51.304 114.546,54.279 111.046,51.990 107.859 C 51.572 107.277,51.019 106.741,50.762 106.667 C 50.504 106.593,49.957 106.381,49.546 106.194 C 48.709 105.814,44.792 105.658,44.079 105.976 M111.362 106.160 C 111.132 106.250,110.705 106.331,110.411 106.339 C 110.117 106.348,109.589 106.586,109.237 106.868 L 108.596 107.381 108.525 120.396 C 108.461 132.268,108.486 133.442,108.808 133.764 C 109.436 134.392,115.984 134.275,117.247 133.613 C 117.774 133.336,118.493 133.040,118.843 132.956 C 119.218 132.865,120.009 132.253,120.765 131.468 C 121.472 130.735,122.215 130.074,122.417 129.999 C 122.619 129.925,122.916 129.547,123.078 129.160 C 123.240 128.774,123.531 128.325,123.726 128.164 C 123.920 128.003,124.079 127.590,124.079 127.248 C 124.079 126.905,124.279 126.234,124.522 125.755 C 125.205 124.418,125.206 115.417,124.525 114.551 C 124.209 114.149,124.079 113.675,124.079 112.922 C 124.079 112.146,123.950 111.696,123.599 111.246 C 123.334 110.908,122.901 110.349,122.635 110.004 C 122.364 109.652,121.286 108.936,120.179 108.373 C 119.094 107.821,118.041 107.225,117.840 107.048 C 117.619 106.855,116.707 106.651,115.545 106.534 C 114.484 106.428,113.202 106.264,112.697 106.169 C 112.192 106.075,111.591 106.071,111.362 106.160 M200.577 111.341 C 200.320 111.828,200.016 112.731,199.901 113.347 C 199.785 113.964,199.546 114.748,199.369 115.090 C 198.447 116.873,198.341 121.603,199.207 122.297 C 200.080 122.998,203.001 123.171,203.959 122.579 C 204.392 122.311,204.232 118.643,203.746 117.689 C 203.526 117.258,203.281 116.525,203.202 116.061 C 203.124 115.596,202.925 114.917,202.762 114.552 C 202.598 114.187,202.361 113.370,202.234 112.737 C 201.777 110.454,201.269 110.027,200.577 111.341 M43.858 124.398 C 42.883 125.167,42.581 127.510,43.171 129.735 C 43.295 130.203,43.428 131.279,43.466 132.125 C 43.519 133.316,43.644 133.812,44.018 134.317 L 44.501 134.971 46.691 134.971 C 47.895 134.971,48.935 134.882,49.002 134.773 C 49.069 134.665,49.586 134.423,50.150 134.235 C 52.915 133.317,54.594 129.245,53.264 126.682 C 52.555 125.315,52.092 125.011,50.142 124.630 C 45.315 123.686,44.786 123.666,43.858 124.398 M346.503 155.064 C 350.638 156.965,352.707 159.122,352.532 161.349 C 352.292 164.386,351.116 166.133,348.476 167.372 C 347.175 167.983,346.827 168.555,346.824 170.087 C 346.823 170.772,346.043 172.557,345.745 172.557 C 345.643 172.557,345.305 172.992,344.994 173.523 C 344.190 174.895,343.954 174.975,341.559 174.689 C 339.350 174.425,338.285 174.626,338.276 175.306 C 338.184 182.414,334.939 186.941,333.380 182.138 C 332.914 180.702,332.434 180.417,330.647 180.514 C 328.895 180.609,328.733 180.788,329.175 182.141 C 329.368 182.728,329.528 183.431,329.532 183.703 C 329.535 183.974,329.680 184.383,329.852 184.611 C 330.757 185.807,329.923 187.683,328.671 187.268 C 326.316 186.490,325.994 186.324,325.275 185.522 C 323.494 183.535,322.888 183.034,321.996 182.812 C 320.170 182.356,319.681 181.373,320.163 179.133 C 320.596 177.128,321.969 176.303,324.365 176.611 L 325.407 176.744 325.783 175.559 C 327.116 171.351,328.373 170.189,332.283 169.553 C 333.642 169.332,333.699 169.265,333.867 167.679 C 334.056 165.898,334.597 164.513,335.319 163.961 C 335.665 163.697,336.282 163.206,336.690 162.869 C 337.281 162.382,337.706 162.236,338.764 162.153 L 340.096 162.049 342.232 163.465 C 343.406 164.243,344.624 165.127,344.939 165.428 C 345.692 166.150,346.256 165.966,346.577 164.894 C 347.175 162.897,347.016 162.668,344.779 162.304 C 343.920 162.164,343.368 161.932,342.955 161.536 C 342.433 161.035,342.235 160.981,341.285 161.072 C 339.672 161.227,339.349 160.913,339.349 159.191 C 339.349 155.556,342.997 153.452,346.503 155.064 M314.703 182.406 C 315.040 182.780,315.101 183.139,315.059 184.511 C 315.012 186.024,315.055 186.218,315.559 186.782 C 316.313 187.628,316.711 188.612,316.711 189.628 C 316.711 190.550,317.094 190.924,318.038 190.924 C 320.167 190.924,320.312 193.664,318.270 195.318 C 316.545 196.716,316.339 196.792,314.268 196.794 C 311.439 196.798,310.802 196.422,310.079 194.322 C 309.508 192.664,308.740 191.040,308.268 190.497 C 305.803 187.652,307.276 183.553,311.072 182.690 C 312.001 182.479,312.852 182.227,312.963 182.130 C 313.342 181.801,314.294 181.952,314.703 182.406 M305.019 187.044 C 306.032 188.009,306.024 188.123,304.855 189.292 C 303.830 190.317,302.834 192.174,302.834 193.059 C 302.835 194.228,303.124 195.220,303.621 195.756 L 304.143 196.319 306.570 196.169 C 309.443 195.992,309.877 196.131,309.877 197.228 C 309.877 198.696,307.718 200.118,304.231 200.946 C 302.036 201.467,301.741 201.378,300.315 199.765 C 298.535 197.751,298.051 197.831,297.283 200.272 C 296.350 203.233,294.848 203.510,291.831 201.280 C 290.820 200.533,290.281 200.485,289.852 201.106 C 288.137 203.587,286.091 203.782,285.511 201.518 C 284.987 199.472,283.733 199.774,282.951 202.136 C 282.321 204.037,280.764 204.748,279.777 203.585 C 278.702 202.321,277.697 202.126,276.343 202.919 C 271.714 205.631,265.518 203.088,268.873 199.853 C 270.133 198.640,270.166 198.403,269.240 197.246 C 266.443 193.749,268.574 189.552,273.153 189.540 C 276.476 189.532,277.508 191.037,276.173 193.944 L 275.718 194.935 276.475 196.429 L 277.231 197.923 277.788 197.366 C 278.498 196.656,278.704 195.550,278.549 193.265 C 278.374 190.665,278.799 190.196,281.282 190.258 C 282.013 190.277,282.413 190.420,282.842 190.817 C 283.443 191.375,284.125 191.512,284.365 191.123 C 285.386 189.472,288.633 189.417,289.917 191.030 C 290.136 191.305,290.728 191.420,291.679 191.374 C 292.041 191.357,292.269 191.113,292.561 190.430 C 293.172 189.007,294.142 188.033,294.547 188.437 C 296.076 189.967,297.276 189.990,298.863 188.521 C 301.272 186.291,303.633 185.725,305.019 187.044 " stroke="none" fill="#fafbfa" fill-rule="evenodd"></path><path id="path3" d="M261.612 10.576 C 261.084 10.725,260.219 11.047,259.690 11.292 C 259.162 11.536,258.544 11.739,258.318 11.741 C 256.981 11.756,252.705 14.552,252.059 15.833 C 251.919 16.110,251.411 17.154,250.930 18.153 C 249.944 20.199,249.149 21.682,248.832 22.063 C 247.118 24.129,247.769 36.042,249.745 38.761 C 250.001 39.114,250.482 39.883,250.813 40.470 C 254.283 46.621,262.873 48.876,270.475 45.633 C 274.245 44.024,275.375 43.215,276.935 41.004 C 277.473 40.240,278.409 39.087,279.015 38.441 C 280.639 36.709,280.815 36.352,281.295 33.816 C 282.289 28.571,281.838 23.412,280.141 20.609 C 278.675 18.187,278.257 17.484,277.784 16.647 C 276.664 14.666,273.673 12.639,270.743 11.876 C 270.126 11.715,269.237 11.418,268.767 11.215 C 266.592 10.279,263.606 10.012,261.612 10.576 M267.850 12.951 C 271.083 13.869,274.603 15.957,275.617 17.559 C 275.862 17.944,276.649 19.172,277.366 20.288 C 279.445 23.521,280.369 26.892,280.005 29.920 C 279.456 34.497,279.208 35.257,277.640 37.160 C 277.205 37.688,276.553 38.553,276.191 39.082 C 274.508 41.541,270.716 43.773,266.051 45.051 C 259.512 46.841,250.294 40.379,250.294 34.004 C 250.294 33.537,250.149 32.747,249.973 32.248 C 249.084 29.728,250.112 23.752,251.992 20.508 C 252.437 19.741,252.929 18.752,253.086 18.310 C 253.731 16.492,256.780 14.174,259.737 13.252 C 260.945 12.876,262.029 12.535,262.146 12.494 C 263.010 12.195,266.048 12.439,267.850 12.951 M312.440 21.139 C 311.559 21.219,310.454 21.394,309.984 21.527 C 309.514 21.660,308.457 21.924,307.635 22.113 C 306.262 22.429,305.519 22.794,302.086 24.837 C 301.501 25.185,300.685 25.860,300.271 26.337 C 299.858 26.814,299.293 27.402,299.016 27.644 C 296.357 29.965,294.817 32.374,294.512 34.688 C 294.374 35.737,294.110 36.938,293.925 37.358 C 293.491 38.343,293.304 42.611,293.625 44.207 C 293.755 44.853,293.962 45.953,294.086 46.651 C 294.544 49.247,296.180 51.833,299.519 55.242 C 300.577 56.321,302.018 57.812,302.723 58.556 C 303.428 59.300,304.245 60.020,304.538 60.154 C 304.832 60.289,306.466 61.091,308.169 61.937 C 311.542 63.612,312.092 63.754,316.383 64.063 C 321.255 64.413,321.683 64.306,328.209 61.108 C 329.366 60.541,333.802 55.927,334.650 54.408 C 335.061 53.672,335.671 52.667,336.004 52.176 C 336.935 50.805,337.486 44.107,337.038 39.616 C 336.620 35.433,334.391 30.482,332.181 28.831 C 331.272 28.151,329.158 26.262,327.264 24.437 C 325.461 22.700,317.971 20.686,314.362 20.968 C 314.186 20.982,313.321 21.059,312.440 21.139 M318.313 23.062 C 319.370 23.319,320.331 23.607,320.448 23.702 C 320.566 23.797,321.335 24.075,322.157 24.320 C 325.472 25.307,330.198 29.079,332.900 32.893 C 336.857 38.478,335.681 52.272,330.917 56.158 C 330.562 56.447,329.805 57.141,329.235 57.699 C 327.803 59.100,326.533 59.861,324.349 60.625 C 323.323 60.984,322.170 61.449,321.786 61.659 C 321.189 61.985,320.526 62.040,317.138 62.040 L 313.187 62.040 310.625 60.834 C 309.215 60.172,307.498 59.375,306.808 59.063 C 303.577 57.606,298.637 51.998,297.013 47.944 C 295.375 43.856,295.290 39.112,296.771 34.431 C 297.882 30.923,302.937 25.897,306.406 24.853 C 306.918 24.699,308.090 24.233,309.010 23.818 C 309.930 23.403,311.191 22.966,311.812 22.849 C 312.433 22.731,312.997 22.576,313.064 22.505 C 313.294 22.265,316.380 22.592,318.313 23.062 M221.570 46.903 C 217.177 48.039,216.641 48.358,214.140 51.326 C 211.190 54.828,210.979 55.413,210.995 60.055 C 211.015 66.070,211.456 67.837,213.470 69.973 C 213.858 70.384,214.442 71.070,214.768 71.498 C 219.963 78.308,226.109 80.234,234.277 77.609 C 236.397 76.928,237.253 76.371,238.350 74.960 C 238.852 74.314,239.498 73.545,239.787 73.251 C 240.678 72.345,240.900 71.871,241.535 69.524 C 241.873 68.275,242.361 66.816,242.620 66.281 C 243.176 65.133,243.127 62.294,242.532 61.142 C 242.345 60.781,241.894 59.586,241.529 58.486 C 239.928 53.661,234.820 49.021,229.408 47.474 C 227.587 46.954,222.740 46.601,221.570 46.903 M227.837 48.916 C 228.692 49.114,232.108 50.554,232.355 50.821 C 232.413 50.885,233.038 51.359,233.743 51.875 C 236.028 53.549,238.791 56.712,239.644 58.632 C 241.435 62.662,240.959 68.896,238.686 71.202 C 238.179 71.717,237.414 72.613,236.988 73.195 C 235.220 75.603,233.041 76.482,228.510 76.614 C 224.711 76.726,224.652 76.710,221.200 74.654 C 217.313 72.340,214.144 68.263,213.549 64.812 C 213.438 64.168,213.252 63.089,213.135 62.413 C 212.532 58.925,212.886 56.849,214.442 54.743 C 218.150 49.723,222.718 47.736,227.837 48.916 M276.882 61.742 C 275.120 61.842,273.102 62.067,272.397 62.242 C 271.692 62.418,270.159 62.669,268.989 62.801 C 267.819 62.932,266.521 63.169,266.106 63.326 C 265.690 63.484,264.825 63.718,264.184 63.848 C 262.687 64.150,257.797 65.869,256.273 66.629 C 255.627 66.951,254.709 67.378,254.233 67.577 C 253.757 67.776,253.084 68.199,252.738 68.516 C 251.465 69.683,250.356 70.446,248.509 71.427 C 245.450 73.052,241.889 75.929,240.132 78.196 C 239.891 78.508,239.125 79.161,238.430 79.648 C 237.695 80.163,236.803 81.055,236.298 81.781 C 235.821 82.467,235.146 83.352,234.800 83.747 C 234.453 84.142,233.696 85.234,233.118 86.173 C 232.540 87.112,231.793 88.232,231.460 88.662 C 231.126 89.093,230.701 89.813,230.516 90.264 C 230.330 90.715,229.821 91.564,229.384 92.152 C 228.118 93.856,227.229 95.566,227.229 96.296 C 227.229 96.979,226.854 97.742,226.095 98.601 C 224.155 100.797,222.268 117.661,223.171 124.720 C 223.389 126.423,223.683 129.018,223.823 130.486 C 224.131 133.685,224.451 135.008,225.408 137.028 C 225.805 137.866,226.272 139.030,226.446 139.615 C 226.619 140.199,226.858 140.859,226.975 141.081 C 227.093 141.303,227.496 142.253,227.871 143.193 C 228.579 144.967,231.018 149.437,232.148 151.032 C 232.505 151.536,233.031 152.303,233.317 152.736 C 233.603 153.168,234.181 153.793,234.601 154.124 C 235.306 154.679,237.185 157.308,237.914 158.758 C 238.084 159.097,238.663 159.620,239.201 159.920 C 239.741 160.221,240.459 160.879,240.805 161.388 C 241.449 162.338,243.468 164.083,245.167 165.158 C 245.696 165.494,246.323 165.946,246.560 166.164 C 246.956 166.527,250.469 168.713,250.657 168.713 C 250.702 168.713,251.269 169.105,251.917 169.583 C 253.964 171.096,263.356 174.582,268.233 175.640 C 273.153 176.707,286.663 177.148,288.628 176.305 C 289.098 176.103,290.072 175.852,290.792 175.747 C 292.705 175.468,297.895 173.914,300.481 172.845 C 301.714 172.336,302.832 171.918,302.966 171.918 C 303.100 171.917,303.684 171.590,304.264 171.191 C 304.844 170.792,305.840 170.298,306.477 170.093 C 308.696 169.379,309.778 168.815,310.852 167.813 C 311.447 167.258,312.505 166.552,313.202 166.245 C 313.899 165.938,314.804 165.527,315.213 165.331 C 315.622 165.136,317.111 163.823,318.523 162.413 C 319.934 161.004,321.722 159.297,322.495 158.621 C 323.353 157.872,324.217 156.853,324.709 156.010 C 325.154 155.251,325.650 154.519,325.812 154.384 C 325.975 154.249,326.108 154.022,326.108 153.880 C 326.108 153.737,326.561 153.161,327.115 152.599 C 327.670 152.037,328.222 151.410,328.343 151.206 C 329.091 149.947,330.074 147.933,330.705 146.367 C 331.107 145.371,331.630 144.283,331.868 143.949 C 332.106 143.614,332.301 143.279,332.301 143.205 C 332.301 143.130,332.503 142.796,332.749 142.463 C 332.995 142.130,333.334 141.197,333.503 140.390 C 333.671 139.582,334.139 138.201,334.543 137.320 C 334.947 136.439,335.369 135.238,335.481 134.650 C 335.592 134.063,335.832 133.058,336.013 132.418 C 337.000 128.933,337.415 116.298,336.713 111.128 C 336.519 109.702,336.416 108.255,336.485 107.913 C 336.660 107.038,336.221 104.858,335.738 104.202 C 335.174 103.436,334.635 101.766,334.500 100.374 C 334.390 99.234,334.249 98.912,332.297 95.363 C 331.315 93.577,330.261 91.472,329.770 90.314 C 329.541 89.774,329.075 89.005,328.735 88.606 C 327.693 87.383,325.964 84.943,325.422 83.930 C 324.213 81.668,322.996 80.085,322.466 80.085 C 322.259 80.085,321.414 79.269,319.689 77.402 C 318.772 76.410,316.472 74.334,315.613 73.723 C 314.846 73.177,312.607 71.970,312.363 71.970 C 311.986 71.970,310.069 70.626,309.049 69.646 C 308.552 69.168,307.501 68.471,306.715 68.097 C 305.929 67.723,304.901 67.175,304.431 66.878 C 303.962 66.581,302.904 66.170,302.082 65.965 C 301.260 65.760,300.011 65.384,299.306 65.129 C 297.238 64.383,295.300 63.635,294.541 63.290 C 294.152 63.113,292.807 62.885,291.551 62.783 C 290.296 62.681,288.884 62.459,288.414 62.291 C 287.908 62.110,286.210 61.925,284.250 61.838 C 282.429 61.757,280.747 61.662,280.513 61.626 C 280.278 61.590,278.644 61.642,276.882 61.742 M342.685 62.685 C 341.876 62.972,341.108 63.295,340.976 63.403 C 340.844 63.510,340.256 63.740,339.669 63.913 C 335.732 65.075,332.680 68.244,330.055 73.893 L 329.013 76.135 329.069 79.966 C 329.101 82.073,329.206 83.947,329.304 84.130 C 329.402 84.314,329.554 84.944,329.642 85.531 C 329.859 86.991,334.838 92.170,337.235 93.430 C 341.255 95.542,349.690 95.245,353.050 92.872 C 353.361 92.652,353.716 92.472,353.837 92.472 C 354.234 92.472,356.579 90.036,357.023 89.162 C 357.262 88.692,358.025 87.683,358.718 86.919 C 361.344 84.028,361.669 82.764,361.377 76.562 C 361.175 72.268,361.064 71.888,359.429 69.935 C 358.940 69.351,358.355 68.517,358.128 68.081 C 356.123 64.232,347.150 61.096,342.685 62.685 M286.706 64.047 C 287.645 64.160,289.264 64.351,290.303 64.470 C 291.341 64.589,292.831 64.927,293.613 65.220 C 294.395 65.513,295.755 65.958,296.636 66.210 C 298.646 66.785,300.863 67.670,301.507 68.156 C 301.778 68.360,302.499 68.690,303.109 68.890 C 305.120 69.549,306.427 70.302,312.350 74.212 C 312.883 74.565,313.646 75.050,314.045 75.291 C 314.874 75.790,315.968 76.774,317.342 78.256 C 317.865 78.820,318.802 79.658,319.424 80.117 C 320.046 80.577,320.555 81.040,320.555 81.146 C 320.555 81.253,321.090 81.946,321.743 82.688 C 322.396 83.430,323.552 84.949,324.312 86.065 C 325.072 87.181,326.216 88.767,326.854 89.589 C 328.320 91.478,329.523 93.667,331.429 97.918 C 332.499 100.305,333.772 104.605,334.211 107.314 C 334.344 108.137,334.549 109.338,334.665 109.984 C 335.322 113.634,335.646 119.968,335.292 122.231 C 335.160 123.071,334.971 125.253,334.872 127.080 C 334.746 129.406,334.582 130.653,334.327 131.244 C 334.126 131.708,333.791 132.808,333.583 133.689 C 332.529 138.151,330.868 142.282,329.344 144.235 C 329.242 144.367,328.979 144.955,328.762 145.542 C 328.544 146.129,328.050 147.172,327.664 147.858 C 327.278 148.545,326.962 149.183,326.962 149.277 C 326.962 149.370,326.550 149.913,326.046 150.484 C 325.542 151.055,324.467 152.387,323.658 153.444 C 322.849 154.501,321.819 155.772,321.371 156.269 C 320.922 156.765,320.555 157.266,320.555 157.382 C 320.555 157.498,320.202 157.833,319.770 158.126 C 319.338 158.420,317.776 159.841,316.300 161.284 C 314.090 163.444,313.327 164.047,311.990 164.694 C 311.096 165.126,310.231 165.613,310.068 165.776 C 308.984 166.855,305.120 168.956,302.233 170.037 C 301.580 170.281,300.746 170.658,300.379 170.874 C 299.150 171.599,296.773 172.371,292.792 173.337 C 282.760 175.771,270.529 175.005,261.246 171.362 C 259.929 170.845,258.673 170.422,258.456 170.422 C 256.962 170.422,247.515 164.632,244.683 161.981 C 243.807 161.161,242.226 159.770,241.168 158.889 C 240.110 158.009,239.024 156.951,238.755 156.540 C 238.247 155.765,237.348 154.641,235.874 152.940 C 233.641 150.362,231.874 147.599,231.281 145.758 C 231.130 145.289,230.733 144.462,230.399 143.919 C 230.065 143.376,229.792 142.881,229.792 142.820 C 229.792 142.758,229.364 141.798,228.842 140.688 C 227.104 136.995,225.801 132.711,225.510 129.738 C 224.967 124.189,224.661 118.677,224.781 116.604 C 225.109 110.947,225.504 108.224,226.503 104.740 C 227.040 102.867,227.615 100.825,227.781 100.203 C 227.947 99.580,228.228 98.792,228.404 98.451 C 228.580 98.111,228.724 97.707,228.724 97.553 C 228.724 97.222,229.505 95.715,230.747 93.647 C 231.241 92.824,232.054 91.383,232.553 90.443 C 233.052 89.503,233.675 88.494,233.938 88.201 C 234.201 87.907,234.790 87.138,235.246 86.492 C 236.785 84.313,239.560 81.053,240.791 79.979 C 241.464 79.391,242.796 78.171,243.752 77.268 C 245.590 75.528,247.047 74.319,247.304 74.319 C 247.389 74.319,247.832 74.020,248.289 73.654 C 248.745 73.289,249.648 72.743,250.294 72.442 C 250.940 72.141,252.189 71.393,253.070 70.781 C 254.663 69.673,255.715 69.164,259.797 67.523 C 265.664 65.165,267.606 64.716,274.746 64.069 C 276.038 63.951,277.288 63.814,277.523 63.764 C 278.210 63.618,284.842 63.822,286.706 64.047 M348.318 64.696 C 350.493 64.926,352.025 65.416,352.955 66.176 C 353.333 66.485,354.258 67.218,355.013 67.806 C 355.767 68.393,356.572 69.162,356.801 69.514 C 359.262 73.295,359.425 73.817,359.420 77.907 C 359.413 82.448,359.196 83.073,356.177 87.221 C 355.742 87.819,355.145 88.661,354.849 89.094 C 353.267 91.406,346.854 93.626,343.309 93.088 C 339.102 92.450,336.750 91.298,334.410 88.732 C 331.136 85.141,331.123 85.106,331.144 80.085 L 331.161 75.921 331.864 74.322 C 333.123 71.461,336.822 66.976,338.294 66.526 C 338.580 66.439,339.343 66.126,339.989 65.832 C 342.794 64.552,344.620 64.303,348.318 64.696 M234.128 97.420 C 232.389 98.013,232.511 100.827,234.610 108.604 C 234.896 109.666,235.131 110.751,235.131 111.014 C 235.131 111.277,235.281 111.850,235.464 112.287 C 235.647 112.723,235.933 113.753,236.099 114.576 C 236.988 118.968,237.894 123.087,238.284 124.506 C 239.461 128.796,239.950 130.885,240.481 133.903 C 240.616 134.666,240.818 135.464,240.932 135.676 C 241.163 136.109,241.843 138.692,242.067 139.989 C 242.498 142.487,243.186 142.770,248.738 142.729 C 254.637 142.685,255.067 142.494,255.732 139.626 C 255.907 138.871,256.202 137.827,256.387 137.306 C 256.572 136.785,256.864 135.686,257.034 134.864 C 257.205 134.042,257.530 132.504,257.756 131.447 C 257.982 130.390,258.366 128.516,258.609 127.282 C 259.131 124.632,260.048 121.684,260.649 120.724 C 261.100 120.004,261.399 119.834,261.399 120.297 C 261.399 120.448,261.593 120.952,261.831 121.418 C 262.069 121.883,262.503 123.513,262.796 125.040 C 263.089 126.567,263.422 128.153,263.537 128.564 C 263.652 128.975,263.896 130.128,264.078 131.127 C 264.261 132.125,264.594 133.663,264.817 134.544 C 265.041 135.424,265.286 136.674,265.362 137.320 C 265.944 142.289,266.698 142.832,273.065 142.875 C 278.263 142.911,278.561 142.748,279.330 139.455 C 279.591 138.340,279.946 136.994,280.118 136.466 C 280.291 135.937,280.719 134.640,281.068 133.582 C 281.418 132.525,281.837 131.036,282.001 130.272 C 282.164 129.509,282.644 127.635,283.067 126.108 C 284.478 121.021,285.561 116.733,285.954 114.682 C 286.323 112.756,287.662 108.090,288.374 106.247 C 288.938 104.787,289.686 99.856,289.462 99.074 C 289.060 97.673,287.261 97.176,282.588 97.172 C 278.574 97.169,278.092 97.786,277.091 104.218 C 276.900 105.451,276.564 107.181,276.346 108.062 C 276.127 108.943,275.893 110.096,275.825 110.625 C 275.758 111.153,275.603 112.018,275.483 112.547 C 275.362 113.075,274.937 114.949,274.538 116.711 C 274.139 118.473,273.669 120.251,273.494 120.662 L 273.174 121.410 272.836 120.662 C 272.650 120.251,272.412 119.770,272.308 119.594 C 272.204 119.418,272.001 118.841,271.858 118.313 C 271.715 117.784,271.474 116.919,271.323 116.391 C 271.173 115.862,270.945 114.421,270.818 113.187 C 270.691 111.954,270.552 110.609,270.509 110.198 C 270.466 109.786,270.135 108.297,269.772 106.887 C 269.409 105.478,268.868 103.078,268.569 101.555 C 268.091 99.123,267.946 98.707,267.377 98.138 L 266.729 97.491 261.942 97.491 L 257.155 97.491 256.500 98.118 C 255.579 99.001,255.092 100.165,254.663 102.509 C 254.459 103.625,254.117 105.115,253.903 105.820 C 253.408 107.448,252.563 111.208,252.102 113.828 C 251.659 116.348,250.852 119.708,250.473 120.613 C 249.644 122.591,248.359 119.298,247.617 113.294 C 247.471 112.111,246.927 109.642,245.996 105.939 C 245.658 104.596,245.382 103.143,245.382 102.712 C 245.382 101.735,245.033 99.822,244.710 99.029 C 244.222 97.829,243.886 97.757,236.626 97.300 C 235.554 97.233,234.531 97.282,234.128 97.420 M302.768 97.303 C 302.710 97.361,301.523 97.405,300.130 97.401 C 297.252 97.393,296.709 97.566,296.156 98.668 C 295.693 99.593,295.567 140.458,296.025 141.463 C 296.565 142.649,296.803 142.668,310.459 142.652 C 326.205 142.633,325.145 142.957,325.146 138.166 C 325.147 133.418,324.347 133.024,314.576 132.961 C 307.438 132.915,307.101 132.702,307.101 128.224 C 307.101 124.757,307.352 124.396,309.618 124.599 C 311.618 124.777,312.028 124.775,316.604 124.555 C 322.540 124.271,323.065 123.903,323.282 119.874 C 323.542 115.074,322.857 114.476,316.954 114.345 C 306.454 114.112,306.967 114.284,307.151 111.055 C 307.356 107.454,307.371 107.447,314.896 107.083 C 323.946 106.645,323.700 106.738,323.994 103.673 C 324.392 99.513,323.951 97.761,322.438 97.494 C 321.419 97.314,302.936 97.135,302.768 97.303 M285.691 99.336 C 287.535 99.688,287.728 100.094,287.055 102.215 C 286.836 102.905,286.589 104.047,286.507 104.752 C 286.425 105.456,286.037 106.994,285.646 108.169 C 285.254 109.343,284.780 111.169,284.592 112.226 C 284.404 113.284,284.112 114.677,283.944 115.323 C 283.776 115.969,283.387 117.555,283.079 118.847 C 282.281 122.191,281.459 125.106,281.013 126.166 C 280.803 126.668,280.528 127.897,280.404 128.897 C 280.264 130.028,279.865 131.540,279.351 132.896 C 278.896 134.096,278.461 135.462,278.383 135.932 C 277.637 140.470,277.179 140.835,272.501 140.623 C 268.076 140.423,267.935 140.293,267.050 135.611 C 266.905 134.848,266.591 133.406,266.350 132.408 C 266.110 131.410,265.705 129.391,265.449 127.923 C 265.194 126.455,264.846 124.725,264.677 124.079 C 264.507 123.433,264.188 122.088,263.967 121.089 C 263.746 120.091,263.477 119.034,263.369 118.740 C 263.261 118.446,263.045 117.293,262.889 116.177 C 262.615 114.214,261.956 112.974,261.187 112.974 C 260.650 112.974,259.065 117.114,258.509 119.971 C 258.343 120.824,258.093 121.737,257.952 121.999 C 257.811 122.262,257.578 123.054,257.434 123.759 C 257.189 124.951,256.905 126.174,255.837 130.623 C 255.607 131.579,255.415 132.924,255.410 133.613 C 255.405 134.301,255.270 135.200,255.111 135.611 C 254.951 136.022,254.604 136.935,254.338 137.640 C 253.783 139.114,253.161 140.038,252.606 140.215 C 252.393 140.282,252.069 140.487,251.887 140.669 C 251.425 141.131,248.626 141.412,246.907 141.168 C 244.649 140.849,243.623 139.150,242.517 133.903 C 242.356 133.139,242.065 131.794,241.871 130.913 C 241.677 130.032,241.282 127.944,240.993 126.273 C 240.705 124.602,240.173 122.439,239.812 121.468 C 239.168 119.735,238.893 118.528,238.218 114.479 C 238.033 113.368,237.703 112.023,237.484 111.489 C 237.265 110.955,236.978 109.845,236.845 109.023 C 236.558 107.247,236.088 105.025,235.626 103.257 C 234.744 99.880,235.052 99.101,237.266 99.103 C 238.745 99.104,241.690 99.760,242.584 100.288 C 243.300 100.711,243.366 100.874,243.543 102.674 C 243.604 103.293,243.800 104.302,243.977 104.916 C 244.791 107.727,245.595 111.395,245.597 112.300 C 245.597 112.847,245.732 114.207,245.897 115.323 C 246.061 116.439,246.261 117.977,246.342 118.740 C 246.583 121.033,248.367 127.122,249.151 128.326 C 250.064 129.729,250.234 129.638,251.049 127.317 C 251.323 126.534,251.797 125.197,252.101 124.346 C 252.405 123.494,252.797 121.776,252.972 120.529 C 253.147 119.282,253.427 117.625,253.594 116.846 C 253.761 116.067,253.961 114.767,254.038 113.956 C 254.115 113.145,254.311 111.992,254.473 111.393 C 254.635 110.794,255.019 109.055,255.327 107.528 C 255.634 106.001,256.105 104.175,256.375 103.470 C 256.644 102.766,256.924 101.853,256.997 101.442 C 257.323 99.598,260.666 98.609,264.287 99.286 C 266.261 99.655,266.279 99.688,267.065 104.645 C 267.261 105.878,267.651 107.437,267.933 108.109 C 268.232 108.819,268.447 109.758,268.448 110.351 C 268.448 110.913,268.606 111.660,268.798 112.013 C 269.132 112.625,269.654 115.567,270.162 119.701 C 270.507 122.510,270.949 124.288,271.517 125.146 C 271.793 125.563,272.226 126.310,272.479 126.807 C 272.733 127.303,273.029 127.710,273.139 127.710 C 273.623 127.710,274.653 125.752,274.956 124.255 C 275.130 123.395,275.415 122.210,275.588 121.623 C 276.216 119.493,276.581 117.732,276.881 115.381 C 277.049 114.062,277.334 112.697,277.515 112.348 C 277.695 111.999,277.844 111.300,277.846 110.795 C 277.847 110.290,278.038 109.108,278.270 108.169 C 278.502 107.229,278.748 105.836,278.817 105.072 C 279.015 102.883,279.925 100.437,280.785 99.780 C 281.941 98.899,282.929 98.809,285.691 99.336 M311.265 99.228 C 311.853 99.336,312.766 99.357,313.294 99.275 C 318.474 98.463,323.004 99.907,322.359 102.164 C 321.538 105.039,320.560 105.355,313.456 105.042 C 306.990 104.756,306.212 105.187,305.629 109.381 C 304.841 115.047,306.640 116.490,314.402 116.417 C 320.634 116.359,321.542 116.760,321.369 119.497 C 321.217 121.916,320.224 122.585,316.793 122.583 C 315.750 122.582,314.169 122.692,313.282 122.827 C 311.817 123.050,311.548 123.031,310.377 122.626 C 308.202 121.873,307.394 122.180,306.240 124.198 L 305.606 125.306 305.607 129.017 C 305.608 133.740,305.847 134.263,308.219 134.737 C 308.720 134.837,309.578 135.045,310.127 135.198 C 310.981 135.437,311.394 135.425,313.010 135.116 C 315.374 134.663,317.519 134.659,319.886 135.103 C 323.236 135.731,323.678 136.147,323.475 138.481 C 323.313 140.341,323.070 140.469,319.492 140.590 C 317.904 140.644,313.962 140.810,310.731 140.959 C 300.925 141.411,298.591 141.300,298.113 140.359 C 297.117 138.398,297.060 100.703,298.052 99.721 C 298.723 99.058,308.390 98.697,311.265 99.228 M342.791 154.844 C 340.276 155.464,339.349 156.634,339.349 159.191 C 339.349 160.913,339.672 161.227,341.285 161.072 C 342.235 160.981,342.433 161.035,342.955 161.536 C 343.368 161.932,343.920 162.164,344.779 162.304 C 347.016 162.668,347.175 162.897,346.577 164.894 C 346.256 165.966,345.692 166.150,344.939 165.428 C 344.624 165.127,343.406 164.243,342.232 163.465 L 340.096 162.049 338.764 162.153 C 337.706 162.236,337.281 162.382,336.690 162.869 C 336.282 163.206,335.665 163.697,335.319 163.961 C 334.597 164.513,334.056 165.898,333.867 167.679 C 333.699 169.265,333.642 169.332,332.283 169.553 C 328.373 170.189,327.116 171.351,325.783 175.559 L 325.407 176.744 324.365 176.611 C 321.969 176.303,320.596 177.128,320.163 179.133 C 319.681 181.373,320.170 182.356,321.996 182.812 C 322.888 183.034,323.494 183.535,325.275 185.522 C 325.994 186.324,326.316 186.490,328.671 187.268 C 329.923 187.683,330.757 185.807,329.852 184.611 C 329.680 184.383,329.535 183.974,329.532 183.703 C 329.528 183.431,329.368 182.728,329.175 182.141 C 328.733 180.788,328.895 180.609,330.647 180.514 C 332.434 180.417,332.914 180.702,333.380 182.138 C 334.939 186.941,338.184 182.414,338.276 175.306 C 338.285 174.626,339.350 174.425,341.559 174.689 C 343.954 174.975,344.190 174.895,344.994 173.523 C 345.305 172.992,345.643 172.557,345.745 172.557 C 346.043 172.557,346.823 170.772,346.824 170.087 C 346.827 168.555,347.175 167.983,348.476 167.372 C 351.116 166.133,352.292 164.386,352.532 161.349 C 352.663 159.686,352.316 159.048,350.484 157.576 C 347.114 154.867,345.306 154.224,342.791 154.844 M344.883 157.056 C 346.800 158.767,347.019 159.206,346.073 159.443 C 345.536 159.578,344.901 159.250,344.901 158.838 C 344.901 158.721,344.613 158.297,344.261 157.896 C 343.344 156.852,343.866 156.148,344.883 157.056 M342.216 166.059 C 342.560 166.402,342.682 167.218,342.390 167.218 C 342.146 167.218,341.057 166.164,341.057 165.928 C 341.057 165.602,341.849 165.691,342.216 166.059 M334.978 175.465 C 335.268 175.655,335.505 175.928,335.505 176.073 C 335.505 176.217,335.697 176.509,335.932 176.722 C 336.168 176.936,336.359 177.380,336.359 177.716 L 336.359 178.324 335.932 177.896 C 335.623 177.588,335.220 177.469,334.479 177.469 C 332.892 177.469,332.620 176.608,333.856 175.494 C 334.360 175.039,334.330 175.040,334.978 175.465 M312.963 182.130 C 312.852 182.227,312.001 182.479,311.072 182.690 C 307.276 183.553,305.803 187.652,308.268 190.497 C 308.740 191.040,309.508 192.664,310.079 194.322 C 310.802 196.422,311.439 196.798,314.268 196.794 C 316.339 196.792,316.545 196.716,318.270 195.318 C 320.312 193.664,320.167 190.924,318.038 190.924 C 317.094 190.924,316.711 190.550,316.711 189.628 C 316.711 188.612,316.313 187.628,315.559 186.782 C 315.055 186.218,315.012 186.024,315.059 184.511 C 315.124 182.394,314.056 181.181,312.963 182.130 M301.719 186.743 C 300.562 187.205,299.715 187.732,298.863 188.521 C 297.276 189.990,296.076 189.967,294.547 188.437 C 294.142 188.033,293.172 189.007,292.561 190.430 C 292.269 191.113,292.041 191.357,291.679 191.374 C 290.728 191.420,290.136 191.305,289.917 191.030 C 288.633 189.417,285.386 189.472,284.365 191.123 C 284.125 191.512,283.443 191.375,282.842 190.817 C 282.413 190.420,282.013 190.277,281.282 190.258 C 278.799 190.196,278.374 190.665,278.549 193.265 C 278.704 195.550,278.498 196.656,277.788 197.366 L 277.231 197.923 276.475 196.429 L 275.718 194.935 276.173 193.944 C 277.508 191.037,276.476 189.532,273.153 189.540 C 268.574 189.552,266.443 193.749,269.240 197.246 C 270.166 198.403,270.133 198.640,268.873 199.853 C 265.518 203.088,271.714 205.631,276.343 202.919 C 277.697 202.126,278.702 202.321,279.777 203.585 C 280.764 204.748,282.321 204.037,282.951 202.136 C 283.733 199.774,284.987 199.472,285.511 201.518 C 286.091 203.782,288.137 203.587,289.852 201.106 C 290.281 200.485,290.820 200.533,291.831 201.280 C 294.848 203.510,296.350 203.233,297.283 200.272 C 298.051 197.831,298.535 197.751,300.315 199.765 C 301.741 201.378,302.036 201.467,304.231 200.946 C 307.718 200.118,309.877 198.696,309.877 197.228 C 309.877 196.131,309.443 195.992,306.570 196.169 L 304.143 196.319 303.621 195.756 C 303.124 195.220,302.835 194.228,302.834 193.059 C 302.834 192.174,303.830 190.317,304.855 189.292 C 306.024 188.123,306.032 188.009,305.019 187.044 C 303.933 186.011,303.622 185.982,301.719 186.743 M313.204 189.508 C 313.133 189.860,312.933 190.306,312.758 190.499 C 312.583 190.692,312.440 190.961,312.440 191.096 C 312.440 191.756,310.179 190.272,310.035 189.518 C 309.745 188.002,310.698 187.502,312.296 188.331 C 313.257 188.829,313.322 188.914,313.204 189.508 M288.494 193.260 C 288.763 194.090,288.752 194.212,288.367 194.733 C 288.136 195.046,287.777 195.630,287.569 196.032 C 287.035 197.064,286.825 196.563,286.774 194.133 C 286.717 191.467,287.744 190.946,288.494 193.260 M272.036 195.573 C 271.924 196.163,271.163 196.112,270.710 195.484 C 270.315 194.938,270.315 194.900,270.691 194.201 L 271.079 193.481 271.593 194.343 C 271.875 194.816,272.075 195.370,272.036 195.573 M313.666 194.483 C 313.424 195.014,313.423 195.015,313.252 194.552 C 313.044 193.991,313.200 193.677,313.609 193.834 C 313.849 193.926,313.861 194.056,313.666 194.483 M294.890 196.329 C 295.147 196.602,295.461 197.360,295.596 198.031 C 296.251 201.293,293.997 201.405,292.091 198.205 L 291.322 196.913 292.217 196.690 C 292.710 196.567,293.353 196.327,293.647 196.156 C 294.344 195.752,294.349 195.753,294.890 196.329 " stroke="none" fill="#f7f098" fill-rule="evenodd"></path><path id="path4" d="M37.480 97.166 C 34.684 97.311,32.188 97.967,31.926 98.625 C 31.158 100.556,31.172 140.930,31.942 142.261 C 32.051 142.451,32.454 142.867,32.837 143.187 L 33.533 143.768 40.419 143.758 C 46.052 143.750,47.595 143.683,48.905 143.391 C 49.786 143.194,51.592 142.989,52.917 142.934 C 55.134 142.843,55.352 142.796,55.646 142.348 C 55.872 142.003,56.256 141.821,56.961 141.724 C 57.509 141.649,58.155 141.408,58.397 141.189 C 58.638 140.969,59.189 140.677,59.620 140.539 C 60.051 140.401,60.519 140.149,60.660 139.978 C 60.802 139.808,61.024 139.669,61.154 139.669 C 61.518 139.669,63.427 138.310,63.427 138.051 C 63.427 137.925,63.668 137.596,63.962 137.320 C 64.255 137.044,64.495 136.648,64.495 136.440 C 64.495 136.231,64.736 135.609,65.029 135.057 C 65.427 134.310,65.565 133.719,65.571 132.750 C 65.575 132.026,65.714 131.210,65.884 130.913 C 66.284 130.213,66.284 128.954,65.884 127.997 C 65.707 127.575,65.563 126.889,65.563 126.472 C 65.563 124.724,62.149 120.021,60.879 120.021 C 59.344 120.021,59.062 118.166,60.438 117.117 C 61.025 116.669,61.506 116.181,61.506 116.032 C 61.506 115.883,61.777 115.621,62.108 115.449 C 62.965 115.006,63.234 114.614,63.550 113.344 C 63.703 112.729,63.988 111.794,64.184 111.265 C 65.131 108.700,64.190 104.440,62.202 102.296 C 61.821 101.885,61.507 101.452,61.505 101.335 C 61.500 101.127,60.158 100.160,59.874 100.160 C 59.795 100.160,59.432 99.933,59.068 99.654 C 58.703 99.376,58.103 99.083,57.735 99.002 C 57.367 98.921,56.897 98.668,56.691 98.441 C 55.577 97.210,47.255 96.658,37.480 97.166 M79.338 97.148 C 75.318 97.321,75.058 97.487,74.858 100.001 C 74.780 100.969,74.748 110.961,74.785 122.205 L 74.853 142.647 75.339 143.134 C 75.812 143.607,75.951 143.621,80.410 143.661 L 84.994 143.703 85.541 142.985 C 86.089 142.267,86.363 138.132,86.293 131.660 C 86.286 130.956,86.249 123.315,86.212 114.682 C 86.128 95.095,86.807 96.827,79.338 97.148 M102.082 97.163 C 99.842 97.335,97.706 97.938,97.349 98.501 C 96.691 99.537,96.456 124.580,96.944 141.719 C 96.959 142.244,97.487 142.896,98.238 143.319 C 99.228 143.876,114.634 143.873,116.285 143.315 C 116.995 143.075,118.514 142.782,119.662 142.663 C 120.810 142.544,122.028 142.302,122.369 142.126 C 122.711 141.949,123.132 141.805,123.305 141.805 C 123.478 141.805,123.897 141.571,124.237 141.285 C 124.577 140.999,125.137 140.697,125.482 140.615 C 125.826 140.533,126.252 140.341,126.428 140.189 C 126.604 140.037,127.186 139.726,127.721 139.496 C 128.256 139.267,128.977 138.796,129.323 138.450 C 129.670 138.103,130.215 137.754,130.536 137.673 C 130.893 137.584,131.256 137.260,131.473 136.836 C 131.668 136.456,132.300 135.577,132.878 134.883 C 133.457 134.188,134.127 133.227,134.369 132.747 C 134.611 132.267,134.990 131.702,135.210 131.492 C 135.431 131.282,135.614 130.849,135.618 130.531 C 135.622 130.212,135.861 129.471,136.150 128.884 C 136.439 128.297,136.676 127.556,136.677 127.237 C 136.678 126.918,136.888 126.149,137.144 125.528 C 138.005 123.436,137.916 115.662,137.011 113.926 C 136.830 113.579,136.681 112.969,136.680 112.572 C 136.680 112.175,136.497 111.550,136.275 111.184 C 136.053 110.818,135.800 110.185,135.714 109.779 C 135.575 109.121,135.363 108.697,134.373 107.101 C 134.227 106.866,133.964 106.361,133.789 105.980 C 133.614 105.598,133.279 105.166,133.046 105.021 C 132.812 104.875,132.621 104.657,132.621 104.536 C 132.621 104.307,130.186 101.869,129.957 101.869 C 129.886 101.869,129.326 101.499,128.715 101.048 C 128.103 100.597,127.236 100.106,126.787 99.959 C 126.338 99.811,125.921 99.560,125.860 99.401 C 125.800 99.243,125.302 99.046,124.756 98.964 C 124.209 98.882,123.505 98.625,123.191 98.393 C 122.820 98.118,122.075 97.915,121.054 97.809 C 120.192 97.720,119.212 97.538,118.875 97.404 C 118.110 97.101,105.292 96.917,102.082 97.163 M147.636 97.186 C 147.026 97.268,146.196 97.539,145.793 97.788 L 145.058 98.242 144.933 100.963 C 144.864 102.459,144.701 105.077,144.572 106.781 C 144.259 110.889,144.019 127.494,144.157 135.451 L 144.267 141.804 145.058 142.594 L 145.848 143.385 149.219 143.571 C 154.453 143.860,172.535 143.667,173.198 143.315 C 174.500 142.623,174.479 142.699,174.479 138.602 L 174.479 134.824 173.785 134.473 C 173.190 134.171,172.042 134.111,165.723 134.049 C 156.796 133.962,156.986 134.008,156.467 131.791 C 155.842 129.126,155.796 127.283,156.321 126.061 L 156.786 124.980 158.318 124.844 C 159.161 124.768,162.392 124.660,165.499 124.603 C 172.903 124.468,172.546 124.706,172.720 119.782 L 172.832 116.620 172.151 115.983 C 171.286 115.175,171.069 115.150,163.770 115.031 C 156.094 114.906,155.900 114.797,155.900 110.620 L 155.900 108.423 156.727 107.636 L 157.554 106.850 160.818 106.708 C 162.614 106.631,165.934 106.567,168.196 106.567 C 173.766 106.567,173.982 106.443,173.660 103.433 C 173.571 102.596,173.562 101.208,173.641 100.347 C 173.797 98.654,173.621 98.137,172.682 97.522 C 172.151 97.174,149.957 96.877,147.636 97.186 M199.573 97.147 C 195.235 97.314,194.697 97.512,193.855 99.255 C 193.529 99.929,193.265 100.750,193.268 101.080 C 193.271 101.409,193.069 102.127,192.819 102.674 C 192.570 103.222,192.314 104.058,192.250 104.531 C 192.187 105.005,191.911 105.815,191.636 106.332 C 191.362 106.849,191.137 107.619,191.137 108.043 C 191.137 108.639,191.027 108.863,190.657 109.026 C 190.290 109.187,190.151 109.464,190.069 110.198 C 190.011 110.726,189.808 111.447,189.619 111.799 C 189.429 112.152,189.214 112.872,189.140 113.401 C 189.004 114.366,188.555 115.979,187.593 118.954 C 187.308 119.834,187.076 120.856,187.077 121.223 C 187.079 121.591,186.941 122.006,186.771 122.147 C 186.601 122.288,186.345 122.949,186.202 123.615 C 186.059 124.281,185.819 124.972,185.669 125.150 C 185.518 125.328,185.290 126.133,185.161 126.939 C 185.032 127.745,184.798 128.656,184.640 128.964 C 184.483 129.273,184.282 129.957,184.194 130.485 C 184.106 131.013,183.855 131.780,183.635 132.190 C 183.415 132.600,183.235 133.187,183.235 133.494 C 183.235 133.801,182.995 134.505,182.702 135.057 C 182.401 135.622,182.168 136.417,182.168 136.875 C 182.168 137.381,181.996 137.907,181.716 138.264 C 181.338 138.743,181.259 139.154,181.235 140.741 C 181.191 143.682,181.075 143.620,186.621 143.620 L 191.063 143.620 191.838 143.028 C 192.408 142.594,192.648 142.225,192.740 141.640 C 192.809 141.202,193.066 140.330,193.311 139.703 C 193.556 139.076,193.802 138.115,193.856 137.567 C 194.191 134.223,196.672 131.284,198.556 132.000 C 198.822 132.101,199.255 132.102,199.519 132.003 C 199.784 131.903,200.207 131.899,200.460 131.993 C 201.157 132.254,205.187 132.684,205.567 132.539 C 206.425 132.210,208.221 133.901,208.223 135.040 C 208.224 135.413,208.370 135.997,208.548 136.337 C 208.725 136.677,209.010 137.625,209.180 138.443 C 209.351 139.261,209.602 140.064,209.738 140.229 C 209.875 140.393,210.066 140.955,210.164 141.477 C 210.285 142.124,210.564 142.638,211.040 143.094 L 211.739 143.762 216.334 143.691 C 222.117 143.602,221.890 143.710,221.890 141.038 C 221.890 139.173,220.874 135.439,220.155 134.661 C 220.052 134.549,219.968 134.192,219.968 133.867 C 219.968 133.541,219.728 132.539,219.434 131.640 C 219.140 130.740,218.900 129.800,218.899 129.551 C 218.899 129.302,218.723 128.809,218.508 128.457 C 218.293 128.104,218.059 127.259,217.989 126.578 C 217.919 125.898,217.663 124.931,217.420 124.429 C 217.177 123.928,216.978 123.351,216.978 123.148 C 216.978 122.944,216.738 122.327,216.444 121.775 C 216.151 121.224,215.910 120.605,215.910 120.402 C 215.910 120.198,215.684 119.428,215.408 118.691 C 215.132 117.955,214.836 116.972,214.750 116.509 C 214.664 116.045,214.457 115.471,214.291 115.233 C 214.124 114.995,213.988 114.458,213.988 114.039 C 213.988 113.620,213.794 112.897,213.556 112.432 C 213.318 111.966,213.072 111.201,213.010 110.731 C 212.831 109.384,212.455 108.062,212.252 108.062 C 212.150 108.062,212.066 107.776,212.066 107.426 C 212.066 106.682,211.466 105.072,211.189 105.072 C 211.084 105.072,210.998 104.774,210.998 104.410 C 210.998 103.720,210.426 102.296,210.149 102.296 C 210.061 102.296,209.928 101.853,209.854 101.312 C 209.780 100.771,209.539 99.978,209.319 99.550 C 209.099 99.122,208.794 98.507,208.640 98.183 C 208.158 97.164,205.892 96.905,199.573 97.147 M346.015 97.298 C 343.520 97.547,342.230 97.998,342.007 98.702 C 341.781 99.413,341.537 116.243,341.573 128.671 C 341.612 142.174,341.558 141.503,342.717 143.033 L 343.243 143.727 356.881 143.727 L 370.519 143.727 370.897 143.150 C 371.431 142.336,371.587 135.422,371.089 134.661 L 370.767 134.169 362.320 134.080 C 355.924 134.013,353.809 133.926,353.605 133.723 C 353.215 133.333,353.223 125.498,353.614 125.105 C 353.823 124.895,355.450 124.794,360.235 124.692 C 366.785 124.554,368.257 124.437,368.841 124.009 C 370.363 122.891,370.577 117.464,369.163 115.821 L 368.667 115.243 361.429 115.057 L 354.191 114.871 353.696 114.320 C 353.129 113.690,353.039 107.525,353.589 106.976 C 353.769 106.796,356.067 106.693,361.635 106.615 C 365.921 106.555,369.508 106.447,369.606 106.376 C 371.835 104.752,371.735 98.676,369.460 97.492 C 368.729 97.111,349.486 96.952,346.015 97.298 M48.970 98.023 C 49.698 98.143,51.410 98.335,52.775 98.449 C 54.990 98.634,55.390 98.733,56.512 99.368 C 61.158 102.001,62.220 103.177,63.232 106.807 L 63.835 108.972 63.418 109.790 C 63.188 110.240,63.001 110.953,63.001 111.374 C 63.001 112.486,60.983 115.602,59.822 116.284 C 58.901 116.825,58.044 117.605,57.665 118.248 L 57.250 118.951 57.936 119.303 C 58.314 119.496,58.894 119.881,59.226 120.158 C 59.558 120.435,59.943 120.663,60.080 120.664 C 60.596 120.669,64.068 124.382,64.068 124.928 C 64.068 125.058,64.284 125.568,64.547 126.063 C 65.225 127.338,65.228 131.771,64.552 133.293 C 64.310 133.839,64.046 134.587,63.965 134.956 C 63.883 135.327,63.544 135.828,63.204 136.080 C 62.866 136.330,62.437 136.855,62.251 137.247 C 62.065 137.639,61.614 138.114,61.249 138.303 C 60.884 138.492,60.414 138.806,60.205 139.001 C 59.482 139.674,56.242 141.162,55.192 141.302 C 54.612 141.380,53.803 141.620,53.393 141.837 C 52.868 142.116,52.195 142.232,51.109 142.232 C 50.261 142.232,48.482 142.371,47.155 142.540 C 43.284 143.035,38.667 143.292,37.480 143.079 C 36.893 142.973,35.980 142.820,35.451 142.739 C 33.617 142.457,32.720 141.929,32.527 141.017 C 32.143 139.203,32.321 99.872,32.716 99.269 C 33.153 98.602,33.612 98.507,37.266 98.322 C 38.793 98.245,40.157 98.122,40.297 98.049 C 40.740 97.816,47.590 97.796,48.970 98.023 M116.497 98.205 C 119.957 98.444,120.918 98.577,121.509 98.897 C 121.689 98.994,122.372 99.220,123.027 99.398 C 124.225 99.725,127.754 101.453,128.350 102.005 C 128.526 102.168,129.199 102.725,129.845 103.243 C 131.362 104.459,132.906 106.262,133.228 107.194 C 133.367 107.597,133.606 108.078,133.760 108.262 C 134.005 108.556,134.545 109.810,135.400 112.066 C 135.545 112.448,135.739 112.760,135.831 112.760 C 135.923 112.760,136.065 113.265,136.147 113.881 C 136.229 114.498,136.477 115.896,136.698 116.989 C 137.076 118.854,137.003 122.527,136.574 123.221 C 136.518 123.313,136.377 124.049,136.262 124.855 C 136.148 125.662,135.810 126.920,135.512 127.652 C 135.214 128.384,134.971 129.203,134.971 129.472 C 134.971 129.741,134.696 130.296,134.360 130.704 C 134.024 131.113,133.547 131.846,133.298 132.335 C 132.620 133.667,130.319 136.431,129.409 137.005 C 128.968 137.284,128.573 137.602,128.532 137.713 C 128.352 138.197,122.573 141.059,121.368 141.261 C 120.876 141.343,120.360 141.547,120.221 141.715 C 120.077 141.888,119.588 142.018,119.082 142.018 C 118.594 142.018,117.429 142.111,116.492 142.224 C 112.848 142.664,105.681 142.897,103.257 142.655 C 101.965 142.526,100.403 142.371,99.786 142.311 C 99.170 142.250,98.531 142.067,98.368 141.904 C 97.054 140.590,97.199 99.506,98.522 98.631 C 98.638 98.554,99.944 98.426,101.423 98.346 C 102.901 98.266,104.399 98.120,104.752 98.021 C 105.560 97.793,112.012 97.894,116.497 98.205 M84.325 98.473 C 84.995 98.706,84.997 98.713,84.995 100.234 C 84.994 101.075,85.004 110.555,85.018 121.303 C 85.032 132.050,85.033 141.110,85.020 141.436 C 84.987 142.303,84.413 142.431,80.429 142.456 C 76.123 142.484,75.599 142.314,75.604 140.891 C 75.605 140.395,75.564 133.647,75.512 125.894 C 75.416 111.610,75.552 99.302,75.811 98.885 C 76.169 98.305,82.909 97.979,84.325 98.473 M171.703 98.429 L 172.237 98.577 172.290 101.878 C 172.361 106.284,173.330 105.800,164.183 105.930 C 154.399 106.069,155.263 105.562,155.264 111.159 C 155.265 115.023,155.239 114.950,156.827 115.654 L 158.142 116.238 164.442 116.334 C 169.541 116.412,170.803 116.489,171.062 116.738 C 171.435 117.097,171.415 122.738,171.039 123.118 C 170.912 123.247,168.066 123.374,163.834 123.438 C 156.162 123.555,155.946 123.593,155.444 124.891 C 155.109 125.758,155.285 133.526,155.649 133.965 C 156.184 134.609,158.142 134.790,165.146 134.844 C 173.910 134.910,173.412 134.660,173.412 139.001 C 173.412 142.748,175.038 142.329,160.241 142.394 C 145.446 142.459,145.778 142.493,145.529 140.882 C 145.194 138.706,145.486 99.188,145.841 98.821 C 146.325 98.319,170.014 97.960,171.703 98.429 M207.722 98.548 C 208.034 98.654,208.229 98.954,208.327 99.478 C 208.407 99.904,208.608 100.515,208.774 100.836 C 208.940 101.158,209.210 101.995,209.374 102.698 C 209.538 103.400,209.827 104.195,210.015 104.464 C 210.204 104.733,210.358 105.224,210.358 105.554 C 210.358 105.884,210.514 106.511,210.705 106.948 C 210.896 107.384,211.241 108.366,211.471 109.130 C 212.235 111.669,212.949 114.132,213.346 115.599 C 213.561 116.397,213.826 117.166,213.934 117.308 C 214.043 117.449,214.254 118.142,214.403 118.847 C 214.552 119.552,214.796 120.272,214.943 120.448 C 215.091 120.625,215.271 121.226,215.344 121.784 C 215.416 122.342,215.657 123.159,215.880 123.599 C 216.103 124.039,216.356 124.736,216.442 125.147 C 216.529 125.558,216.781 126.297,217.002 126.790 C 217.224 127.283,217.405 127.959,217.405 128.293 C 217.405 128.627,217.596 129.274,217.828 129.731 C 218.061 130.187,218.346 131.073,218.462 131.699 C 218.578 132.325,218.784 133.046,218.921 133.301 C 219.058 133.557,219.292 134.301,219.441 134.955 C 219.709 136.132,220.074 137.272,220.850 139.353 C 221.929 142.250,221.683 142.440,216.842 142.444 C 211.290 142.447,211.425 142.506,210.671 139.776 C 210.477 139.071,210.241 138.398,210.147 138.281 C 210.053 138.163,209.860 137.491,209.717 136.786 C 209.574 136.081,209.361 135.386,209.244 135.242 C 209.127 135.098,208.869 134.336,208.671 133.549 C 208.116 131.351,208.212 131.386,202.211 131.242 C 194.923 131.068,193.897 131.514,193.385 135.069 C 193.302 135.652,193.102 136.469,192.942 136.885 C 192.782 137.300,192.543 138.259,192.411 139.015 C 191.851 142.231,191.280 142.542,186.199 142.396 C 181.835 142.271,181.149 141.926,182.281 140.429 C 182.454 140.201,182.595 139.795,182.595 139.526 C 182.595 139.258,182.873 138.195,183.213 137.165 C 184.261 133.990,184.730 132.413,184.730 132.071 C 184.730 131.891,184.914 131.341,185.137 130.848 C 185.361 130.355,185.614 129.471,185.699 128.884 C 185.784 128.297,185.974 127.576,186.120 127.282 C 186.267 126.989,186.494 126.241,186.626 125.621 C 186.757 125.001,186.995 124.281,187.154 124.020 C 187.314 123.759,187.566 122.968,187.713 122.264 C 187.861 121.559,188.078 120.862,188.197 120.716 C 188.316 120.569,188.547 119.807,188.712 119.024 C 188.876 118.240,189.117 117.471,189.246 117.314 C 189.376 117.158,189.610 116.478,189.767 115.803 C 190.331 113.378,190.863 111.574,191.210 110.902 C 191.405 110.526,191.565 109.998,191.566 109.728 C 191.568 109.458,191.794 108.753,192.069 108.161 C 192.345 107.570,192.640 106.617,192.726 106.043 C 192.812 105.470,193.014 104.801,193.174 104.556 C 193.334 104.311,193.530 103.679,193.610 103.150 C 193.691 102.621,193.948 101.760,194.182 101.235 C 194.416 100.710,194.655 99.922,194.714 99.485 C 194.817 98.719,194.861 98.682,195.915 98.480 C 197.136 98.246,207.000 98.303,207.722 98.548 M368.831 98.480 C 369.830 98.779,369.881 98.955,369.885 102.050 C 369.890 106.000,370.082 105.926,359.828 105.926 L 353.032 105.926 352.757 106.407 C 352.250 107.295,352.378 114.572,352.910 115.073 C 353.809 115.920,355.949 116.206,362.306 116.328 C 365.780 116.395,368.398 116.533,368.553 116.657 C 368.999 117.013,368.923 122.660,368.467 123.038 C 368.187 123.271,366.599 123.347,360.771 123.404 L 353.428 123.477 353.062 124.035 C 352.554 124.811,352.504 134.013,353.006 134.324 C 353.550 134.660,355.211 134.790,359.777 134.855 C 365.671 134.939,370.467 135.357,370.638 135.803 C 370.808 136.245,370.800 141.407,370.629 141.852 C 370.537 142.090,370.133 142.249,369.390 142.338 C 367.808 142.527,343.475 142.372,343.274 142.171 C 342.553 141.449,342.574 99.430,343.295 98.704 C 343.737 98.259,367.402 98.052,368.831 98.480 M42.659 105.222 C 41.984 105.655,41.994 105.556,42.057 110.625 C 42.119 115.661,42.575 116.371,45.556 116.080 C 47.498 115.890,49.770 115.371,50.187 115.021 C 50.363 114.874,50.821 114.628,51.206 114.476 C 51.590 114.324,52.067 113.924,52.266 113.587 C 52.465 113.250,52.701 112.974,52.790 112.974 C 54.190 112.974,53.766 108.030,52.235 106.499 C 50.729 104.993,44.344 104.141,42.659 105.222 M108.465 105.375 C 107.326 106.030,107.329 105.991,107.321 120.730 L 107.314 134.366 107.914 134.882 C 108.581 135.456,111.985 135.617,114.042 135.171 C 114.570 135.056,115.675 134.868,116.498 134.753 C 117.320 134.637,118.233 134.366,118.526 134.150 C 118.820 133.934,119.421 133.638,119.861 133.493 C 120.302 133.348,120.662 133.138,120.662 133.027 C 120.662 132.915,120.878 132.742,121.143 132.641 C 122.155 132.253,123.459 130.843,124.106 129.437 C 124.462 128.663,124.845 127.859,124.956 127.651 C 126.461 124.821,126.473 115.024,124.974 112.013 C 123.395 108.841,119.810 105.949,117.423 105.923 C 117.266 105.922,116.716 105.773,116.199 105.593 C 114.797 105.105,109.210 104.947,108.465 105.375 M49.546 106.194 C 49.957 106.381,50.504 106.593,50.762 106.667 C 51.019 106.741,51.572 107.277,51.990 107.859 C 54.279 111.046,51.304 114.546,46.058 114.837 C 43.655 114.970,43.708 115.040,42.942 110.719 C 42.519 108.334,42.965 106.473,44.079 105.976 C 44.792 105.658,48.709 105.814,49.546 106.194 M115.545 106.534 C 116.707 106.651,117.619 106.855,117.840 107.048 C 118.041 107.225,119.094 107.821,120.179 108.373 C 121.286 108.936,122.364 109.652,122.635 110.004 C 122.901 110.349,123.334 110.908,123.599 111.246 C 123.950 111.696,124.079 112.146,124.079 112.922 C 124.079 113.675,124.209 114.149,124.525 114.551 C 125.206 115.417,125.205 124.418,124.522 125.755 C 124.279 126.234,124.079 126.905,124.079 127.248 C 124.079 127.590,123.920 128.003,123.726 128.164 C 123.531 128.325,123.240 128.774,123.078 129.160 C 122.916 129.547,122.619 129.925,122.417 129.999 C 122.215 130.074,121.472 130.735,120.765 131.468 C 120.009 132.253,119.218 132.865,118.843 132.956 C 118.493 133.040,117.774 133.336,117.247 133.613 C 115.984 134.275,109.436 134.392,108.808 133.764 C 108.486 133.442,108.461 132.268,108.525 120.396 L 108.596 107.381 109.237 106.868 C 109.589 106.586,110.117 106.348,110.411 106.339 C 110.705 106.331,111.132 106.250,111.362 106.160 C 111.591 106.071,112.192 106.075,112.697 106.169 C 113.202 106.264,114.484 106.428,115.545 106.534 M200.535 107.847 C 200.285 108.198,199.886 109.327,199.649 110.356 C 199.412 111.385,199.041 112.707,198.824 113.294 C 198.607 113.881,198.363 114.891,198.282 115.537 C 198.201 116.183,198.012 116.951,197.862 117.245 C 197.712 117.539,197.475 118.404,197.335 119.167 C 196.476 123.861,196.834 124.289,201.623 124.291 C 206.564 124.294,206.782 123.588,204.239 115.821 C 203.963 114.979,203.733 114.114,203.728 113.899 C 203.723 113.684,203.574 113.123,203.398 112.653 C 202.903 111.336,202.457 109.597,202.449 108.959 C 202.434 107.634,201.198 106.916,200.535 107.847 M201.773 111.117 C 201.900 111.375,202.107 112.104,202.234 112.737 C 202.361 113.370,202.598 114.187,202.762 114.552 C 202.925 114.917,203.124 115.596,203.202 116.061 C 203.281 116.525,203.526 117.258,203.746 117.689 C 204.232 118.643,204.392 122.311,203.959 122.579 C 203.001 123.171,200.080 122.998,199.207 122.297 C 198.341 121.603,198.447 116.873,199.369 115.090 C 199.546 114.748,199.785 113.964,199.901 113.347 C 200.323 111.093,201.229 110.013,201.773 111.117 M42.979 122.942 C 42.045 123.134,41.923 124.293,42.029 131.913 L 42.072 134.942 42.724 135.406 C 44.989 137.019,50.958 135.912,53.315 133.443 C 57.064 129.513,54.919 124.128,49.226 123.179 C 47.806 122.942,43.731 122.788,42.979 122.942 M47.291 124.095 C 52.236 124.974,52.419 125.053,53.264 126.682 C 54.594 129.245,52.915 133.317,50.150 134.235 C 49.586 134.423,49.069 134.665,49.002 134.773 C 48.935 134.882,47.895 134.971,46.691 134.971 L 44.501 134.971 44.018 134.317 C 43.644 133.812,43.519 133.316,43.466 132.125 C 43.428 131.279,43.295 130.203,43.171 129.735 C 42.010 125.356,43.432 123.410,47.291 124.095 " stroke="none" fill="#a3dfed" fill-rule="evenodd"></path></g></svg>